<svg xmlns="http://www.w3.org/2000/svg" viewBox="0 0 800 400" preserveAspectRatio="xMidYMid slice">
  <defs>
    <linearGradient id="bg-s1" x1="0" y1="0" x2="1" y2="1">
      <stop offset="0%" stop-color="#1F2942"/>
      <stop offset="100%" stop-color="#101729"/>
    </linearGradient>
    <radialGradient id="glow-s1" cx="0.5" cy="0.5" r="0.5">
      <stop offset="0%" stop-color="#C49A3C" stop-opacity="0.30"/>
      <stop offset="100%" stop-color="#C49A3C" stop-opacity="0"/>
    </radialGradient>
    <linearGradient id="board-light" x1="0" y1="0" x2="0" y2="1">
      <stop offset="0%" stop-color="#F4ECC4"/>
      <stop offset="100%" stop-color="#C9B57A"/>
    </linearGradient>
    <linearGradient id="board-dark" x1="0" y1="0" x2="0" y2="1">
      <stop offset="0%" stop-color="#3F2E0F"/>
      <stop offset="100%" stop-color="#1A1306"/>
    </linearGradient>
  </defs>

  <rect width="800" height="400" fill="url(#bg-s1)"/>
  <circle cx="400" cy="200" r="280" fill="url(#glow-s1)"/>

  <!-- 床の影 -->
  <ellipse cx="400" cy="350" rx="240" ry="14" fill="#0B1424" opacity="0.7"/>

  <!-- チェス盤（俯瞰風、台形にゆがませる） -->
  <g transform="translate(400,250)">
    <!-- 外枠 -->
    <polygon points="-220,80 220,80 160,-60 -160,-60" fill="#1A2540" stroke="#C49A3C" stroke-width="2"/>
    <!-- 8x8 マス（簡略化4x4で配置感） -->
    <g>
      <polygon points="-160,-60 -80,-60 -100,-25 -180,-25" fill="url(#board-light)"/>
      <polygon points="-80,-60 0,-60 0,-25 -100,-25" fill="url(#board-dark)"/>
      <polygon points="0,-60 80,-60 100,-25 0,-25" fill="url(#board-light)"/>
      <polygon points="80,-60 160,-60 180,-25 100,-25" fill="url(#board-dark)"/>

      <polygon points="-180,-25 -100,-25 -120,10 -200,10" fill="url(#board-dark)"/>
      <polygon points="-100,-25 0,-25 0,10 -120,10" fill="url(#board-light)"/>
      <polygon points="0,-25 100,-25 120,10 0,10" fill="url(#board-dark)"/>
      <polygon points="100,-25 180,-25 200,10 120,10" fill="url(#board-light)"/>

      <polygon points="-200,10 -120,10 -140,45 -210,45" fill="url(#board-light)"/>
      <polygon points="-120,10 0,10 0,45 -140,45" fill="url(#board-dark)"/>
      <polygon points="0,10 120,10 140,45 0,45" fill="url(#board-light)"/>
      <polygon points="120,10 200,10 210,45 140,45" fill="url(#board-dark)"/>

      <polygon points="-210,45 -140,45 -160,80 -220,80" fill="url(#board-dark)"/>
      <polygon points="-140,45 0,45 0,80 -160,80" fill="url(#board-light)"/>
      <polygon points="0,45 140,45 160,80 0,80" fill="url(#board-dark)"/>
      <polygon points="140,45 220,45 220,80 160,80" fill="url(#board-light)"/>
    </g>
  </g>

  <!-- 駒（簡略化シルエット） -->
  <!-- キング（中央） -->
  <g transform="translate(400,210)" fill="#FFD566">
    <ellipse cx="0" cy="28" rx="18" ry="4" fill="#0B1424" opacity="0.7"/>
    <rect x="-12" y="6" width="24" height="20" rx="2"/>
    <ellipse cx="0" cy="6" rx="14" ry="4"/>
    <rect x="-8" y="-12" width="16" height="20"/>
    <rect x="-3" y="-22" width="6" height="14"/>
    <rect x="-8" y="-18" width="16" height="4"/>
  </g>

  <!-- ナイト（左後） -->
  <g transform="translate(310,170)" fill="#3B5BBF">
    <ellipse cx="0" cy="22" rx="15" ry="3.5" fill="#0B1424" opacity="0.7"/>
    <rect x="-10" y="2" width="20" height="20" rx="2"/>
    <path d="M -8 0 Q -8 -18 6 -18 Q 14 -18 14 -8 L 14 4 L -8 4 Z"/>
    <circle cx="6" cy="-10" r="1.5" fill="#1A2540"/>
  </g>

  <!-- ルーク（右後） -->
  <g transform="translate(490,170)" fill="#7A2E2E">
    <ellipse cx="0" cy="22" rx="15" ry="3.5" fill="#0B1424" opacity="0.7"/>
    <rect x="-10" y="0" width="20" height="22" rx="2"/>
    <rect x="-12" y="-12" width="24" height="14"/>
    <rect x="-12" y="-16" width="6" height="6"/>
    <rect x="-3" y="-16" width="6" height="6"/>
    <rect x="6" y="-16" width="6" height="6"/>
  </g>

  <!-- ポーン（前列） -->
  <g fill="#3B5BBF">
    <g transform="translate(330,260)">
      <ellipse cx="0" cy="14" rx="9" ry="2.5" fill="#0B1424" opacity="0.7"/>
      <rect x="-6" y="-2" width="12" height="14" rx="1"/>
      <circle cx="0" cy="-6" r="6"/>
    </g>
    <g transform="translate(370,260)">
      <ellipse cx="0" cy="14" rx="9" ry="2.5" fill="#0B1424" opacity="0.7"/>
      <rect x="-6" y="-2" width="12" height="14" rx="1"/>
      <circle cx="0" cy="-6" r="6"/>
    </g>
    <g transform="translate(430,260)">
      <ellipse cx="0" cy="14" rx="9" ry="2.5" fill="#0B1424" opacity="0.7"/>
      <rect x="-6" y="-2" width="12" height="14" rx="1"/>
      <circle cx="0" cy="-6" r="6"/>
    </g>
    <g transform="translate(470,260)">
      <ellipse cx="0" cy="14" rx="9" ry="2.5" fill="#0B1424" opacity="0.7"/>
      <rect x="-6" y="-2" width="12" height="14" rx="1"/>
      <circle cx="0" cy="-6" r="6"/>
    </g>
  </g>

  <!-- タイムライン（古典戦略の系譜） -->
  <g transform="translate(400,80)" stroke="#FFD566" stroke-width="1.4" fill="#FFD566" opacity="0.85">
    <line x1="-260" y1="0" x2="260" y2="0" stroke-width="1"/>
    <circle cx="-260" cy="0" r="3"/>
    <circle cx="-130" cy="0" r="3"/>
    <circle cx="0" cy="0" r="3"/>
    <circle cx="130" cy="0" r="3"/>
    <circle cx="260" cy="0" r="3"/>
    <text x="-260" y="-10" font-family="'Cormorant Garamond', serif" font-size="11" text-anchor="middle">Taylor</text>
    <text x="-130" y="-10" font-family="'Cormorant Garamond', serif" font-size="11" text-anchor="middle">Ford</text>
    <text x="0" y="-10" font-family="'Cormorant Garamond', serif" font-size="11" text-anchor="middle">Ansoff</text>
    <text x="130" y="-10" font-family="'Cormorant Garamond', serif" font-size="11" text-anchor="middle">PPM</text>
    <text x="260" y="-10" font-family="'Cormorant Garamond', serif" font-size="11" text-anchor="middle">Porter</text>
  </g>

  <g fill="#7AAEFF" opacity="0.5">
    <circle cx="80" cy="40" r="1.4"/>
    <circle cx="160" cy="50" r="1.0"/>
    <circle cx="700" cy="50" r="1.4"/>
    <circle cx="730" cy="80" r="1.0"/>
  </g>
</svg>
