<svg xmlns="http://www.w3.org/2000/svg" viewBox="0 0 800 400" preserveAspectRatio="xMidYMid slice">
  <defs>
    <linearGradient id="bg-d1" x1="0" y1="0" x2="1" y2="1">
      <stop offset="0%" stop-color="#1F2942"/>
      <stop offset="100%" stop-color="#101729"/>
    </linearGradient>
    <radialGradient id="glow-d1" cx="0.4" cy="0.45" r="0.5">
      <stop offset="0%" stop-color="#FFD566" stop-opacity="0.32"/>
      <stop offset="100%" stop-color="#FFD566" stop-opacity="0"/>
    </radialGradient>
    <linearGradient id="figure-d1" x1="0" y1="0" x2="0" y2="1">
      <stop offset="0%" stop-color="#7A2E2E"/>
      <stop offset="100%" stop-color="#3F1717"/>
    </linearGradient>
    <linearGradient id="paper-d1" x1="0" y1="0" x2="0" y2="1">
      <stop offset="0%" stop-color="#F4ECC4"/>
      <stop offset="100%" stop-color="#D8C898"/>
    </linearGradient>
  </defs>

  <rect width="800" height="400" fill="url(#bg-d1)"/>
  <circle cx="320" cy="200" r="260" fill="url(#glow-d1)"/>

  <!-- 机面 -->
  <rect x="0" y="320" width="800" height="80" fill="#0E1424"/>
  <line x1="0" y1="320" x2="800" y2="320" stroke="#2A3656" stroke-width="1" opacity="0.5"/>

  <!-- ユーザー（左、シルエット） -->
  <g transform="translate(220,210)">
    <ellipse cx="0" cy="100" rx="50" ry="8" fill="#0B1424" opacity="0.7"/>
    <path d="M -38 100 Q -42 30 -22 -8 Q -10 -16 0 -16 Q 10 -16 22 -8 Q 42 30 38 100 Z" fill="url(#figure-d1)"/>
    <circle cx="0" cy="-30" r="16" fill="#E7ECF7"/>
    <path d="M -16 -38 Q 0 -50 18 -38 L 18 -28 L -16 -28 Z" fill="#1A2540"/>
  </g>

  <!-- 思考の吹き出し（ユーザーの本音） -->
  <g transform="translate(280,140)">
    <ellipse cx="0" cy="0" rx="86" ry="58" fill="#F4ECC4" stroke="#FFD566" stroke-width="1.6"/>
    <circle cx="-66" cy="44" r="8" fill="#F4ECC4" stroke="#FFD566" stroke-width="1.4"/>
    <circle cx="-78" cy="56" r="4.5" fill="#F4ECC4" stroke="#FFD566" stroke-width="1.2"/>
    <!-- ハート + 困りマーク -->
    <g transform="translate(-30,-2)" fill="#7A2E2E">
      <path d="M 0 4 Q -10 -8 -16 0 Q -16 10 0 18 Q 16 10 16 0 Q 10 -8 0 4 Z"/>
    </g>
    <text x="20" y="6" font-family="'SF Pro Display','Helvetica Neue',sans-serif" font-size="22" font-weight="700" fill="#7A2E2E">…?</text>
  </g>

  <!-- プロトタイプ（右、机の上） -->
  <g transform="translate(580,260)">
    <ellipse cx="0" cy="60" rx="120" ry="10" fill="#0B1424" opacity="0.7"/>
    <!-- A4 紙 -->
    <rect x="-100" y="-60" width="160" height="120" rx="2" fill="url(#paper-d1)" transform="rotate(-6)"/>
    <!-- 上 -->
    <rect x="-80" y="-50" width="120" height="100" rx="3" fill="#1A2540" stroke="#FFD566" stroke-width="1.2" transform="rotate(-2 -20 0)"/>
    <!-- ワイヤフレーム要素（白いボックス） -->
    <g transform="translate(-22,-2)" fill="#F4ECC4">
      <rect x="-50" y="-40" width="100" height="14" rx="2" opacity="0.85"/>
      <rect x="-50" y="-20" width="60" height="40" rx="2" opacity="0.65"/>
      <rect x="14" y="-20" width="36" height="18" rx="2" opacity="0.7"/>
      <rect x="14" y="0" width="36" height="18" rx="2" opacity="0.7"/>
      <rect x="-50" y="26" width="100" height="10" rx="2" fill="#FFD566"/>
    </g>
  </g>

  <!-- ペン -->
  <g transform="translate(440,300) rotate(-30)">
    <line x1="0" y1="0" x2="50" y2="0" stroke="#1A1F2E" stroke-width="6" stroke-linecap="round"/>
    <line x1="50" y1="0" x2="68" y2="0" stroke="#C49A3C" stroke-width="6" stroke-linecap="round"/>
    <polygon points="68,0 78,-2 78,2" fill="#1A1F2E"/>
  </g>

  <!-- 矢印：ユーザーの本音 → プロトタイプへ -->
  <g stroke="#FFD566" stroke-width="2" fill="none" stroke-linecap="round" stroke-dasharray="5 4" opacity="0.7">
    <path d="M 360 180 Q 460 200 540 230"/>
    <polyline points="528,222 542,232 530,240"/>
  </g>

  <g fill="#7AAEFF" opacity="0.5">
    <circle cx="80" cy="50" r="1.4"/>
    <circle cx="200" cy="36" r="1.0"/>
    <circle cx="720" cy="80" r="1.4"/>
  </g>
</svg>
