<svg xmlns="http://www.w3.org/2000/svg" viewBox="0 0 800 400" preserveAspectRatio="xMidYMid slice">
  <defs>
    <linearGradient id="bg-ph1" x1="0" y1="0" x2="1" y2="1">
      <stop offset="0%" stop-color="#1F2942"/>
      <stop offset="100%" stop-color="#101729"/>
    </linearGradient>
    <radialGradient id="glow-ph1" cx="0.5" cy="0.3" r="0.5">
      <stop offset="0%" stop-color="#FFD566" stop-opacity="0.36"/>
      <stop offset="100%" stop-color="#FFD566" stop-opacity="0"/>
    </radialGradient>
    <linearGradient id="column-ph1" x1="0" y1="0" x2="0" y2="1">
      <stop offset="0%" stop-color="#F4ECC4"/>
      <stop offset="100%" stop-color="#9B8A4F"/>
    </linearGradient>
  </defs>

  <rect width="800" height="400" fill="url(#bg-ph1)"/>
  <circle cx="400" cy="120" r="280" fill="url(#glow-ph1)"/>

  <!-- 床（神殿の段差） -->
  <rect x="0" y="340" width="800" height="60" fill="#0E1424"/>
  <rect x="60" y="330" width="680" height="14" fill="#3F2E0F" opacity="0.7"/>
  <rect x="100" y="320" width="600" height="12" fill="#5A4214" opacity="0.7"/>

  <!-- 光線（上から降り注ぐ） -->
  <g opacity="0.55">
    <polygon points="280,0 240,340 320,340" fill="#FFD566" opacity="0.18"/>
    <polygon points="400,0 370,340 430,340" fill="#FFD566" opacity="0.22"/>
    <polygon points="520,0 480,340 560,340" fill="#FFD566" opacity="0.18"/>
  </g>

  <!-- 神殿の柱（3本） -->
  <g>
    <!-- 左柱 -->
    <g transform="translate(200,200)">
      <!-- 柱頭 -->
      <rect x="-30" y="-90" width="60" height="14" fill="url(#column-ph1)"/>
      <rect x="-26" y="-100" width="52" height="10" fill="#C9B57A"/>
      <!-- 柱身 -->
      <rect x="-22" y="-76" width="44" height="194" fill="url(#column-ph1)"/>
      <!-- 縦溝 -->
      <g stroke="#9B8A4F" stroke-width="1" opacity="0.7">
        <line x1="-12" y1="-76" x2="-12" y2="118"/>
        <line x1="0" y1="-76" x2="0" y2="118"/>
        <line x1="12" y1="-76" x2="12" y2="118"/>
      </g>
      <!-- 柱基 -->
      <rect x="-30" y="118" width="60" height="14" fill="url(#column-ph1)"/>
    </g>
    <!-- 中央柱 -->
    <g transform="translate(400,180)">
      <rect x="-32" y="-110" width="64" height="14" fill="url(#column-ph1)"/>
      <rect x="-28" y="-122" width="56" height="12" fill="#C9B57A"/>
      <rect x="-24" y="-96" width="48" height="234" fill="url(#column-ph1)"/>
      <g stroke="#9B8A4F" stroke-width="1" opacity="0.7">
        <line x1="-14" y1="-96" x2="-14" y2="138"/>
        <line x1="0" y1="-96" x2="0" y2="138"/>
        <line x1="14" y1="-96" x2="14" y2="138"/>
      </g>
      <rect x="-32" y="138" width="64" height="14" fill="url(#column-ph1)"/>
    </g>
    <!-- 右柱 -->
    <g transform="translate(600,200)">
      <rect x="-30" y="-90" width="60" height="14" fill="url(#column-ph1)"/>
      <rect x="-26" y="-100" width="52" height="10" fill="#C9B57A"/>
      <rect x="-22" y="-76" width="44" height="194" fill="url(#column-ph1)"/>
      <g stroke="#9B8A4F" stroke-width="1" opacity="0.7">
        <line x1="-12" y1="-76" x2="-12" y2="118"/>
        <line x1="0" y1="-76" x2="0" y2="118"/>
        <line x1="12" y1="-76" x2="12" y2="118"/>
      </g>
      <rect x="-30" y="118" width="60" height="14" fill="url(#column-ph1)"/>
    </g>
  </g>

  <!-- 浮かぶクエスチョンマーク（金色、思考） -->
  <g font-family="'Cormorant Garamond','Times New Roman',serif" font-weight="700" fill="#FFD566">
    <text x="120" y="120" font-size="48" opacity="0.9">?</text>
    <text x="320" y="80" font-size="32" opacity="0.6">?</text>
    <text x="500" y="100" font-size="38" opacity="0.85">?</text>
    <text x="700" y="140" font-size="30" opacity="0.5">?</text>
  </g>

  <!-- 開いた書物（中央前景） -->
  <g transform="translate(400,330)">
    <ellipse cx="0" cy="22" rx="100" ry="6" fill="#0B1424" opacity="0.7"/>
    <polygon points="-90,-30 0,-44 90,-30 90,18 0,4 -90,18" fill="#F4ECC4"/>
    <line x1="0" y1="-44" x2="0" y2="4" stroke="#7A5A1F" stroke-width="1" opacity="0.6"/>
    <g stroke="#3F2E0F" stroke-width="0.7" opacity="0.5">
      <line x1="-80" y1="-26" x2="-12" y2="-32"/>
      <line x1="-80" y1="-16" x2="-14" y2="-22"/>
      <line x1="-80" y1="-6" x2="-12" y2="-12"/>
      <line x1="12" y1="-32" x2="80" y2="-26"/>
      <line x1="12" y1="-22" x2="76" y2="-16"/>
      <line x1="12" y1="-12" x2="80" y2="-6"/>
    </g>
  </g>

  <g fill="#7AAEFF" opacity="0.55">
    <circle cx="80" cy="50" r="1.4"/>
    <circle cx="160" cy="40" r="1.2"/>
    <circle cx="660" cy="50" r="1.4"/>
    <circle cx="730" cy="80" r="1.0"/>
  </g>
</svg>
