<svg xmlns="http://www.w3.org/2000/svg" viewBox="0 0 800 400" preserveAspectRatio="xMidYMid slice">
  <defs>
    <linearGradient id="bg-c2" x1="0" y1="0" x2="1" y2="1">
      <stop offset="0%" stop-color="#1F2942"/>
      <stop offset="100%" stop-color="#101729"/>
    </linearGradient>
    <linearGradient id="prism-c2" x1="0" y1="0" x2="1" y2="1">
      <stop offset="0%" stop-color="#A8C7FF" stop-opacity="0.95"/>
      <stop offset="100%" stop-color="#6C8EF5" stop-opacity="0.85"/>
    </linearGradient>
    <radialGradient id="glow-c2" cx="0.65" cy="0.5" r="0.55">
      <stop offset="0%" stop-color="#7AAEFF" stop-opacity="0.30"/>
      <stop offset="100%" stop-color="#7AAEFF" stop-opacity="0"/>
    </radialGradient>
    <linearGradient id="rayR-c2" x1="0" y1="0" x2="1" y2="0">
      <stop offset="0%" stop-color="#F87171" stop-opacity="0.85"/>
      <stop offset="100%" stop-color="#F87171" stop-opacity="0"/>
    </linearGradient>
    <linearGradient id="rayY-c2" x1="0" y1="0" x2="1" y2="0">
      <stop offset="0%" stop-color="#FBBF24" stop-opacity="0.85"/>
      <stop offset="100%" stop-color="#FBBF24" stop-opacity="0"/>
    </linearGradient>
    <linearGradient id="rayG-c2" x1="0" y1="0" x2="1" y2="0">
      <stop offset="0%" stop-color="#34D399" stop-opacity="0.85"/>
      <stop offset="100%" stop-color="#34D399" stop-opacity="0"/>
    </linearGradient>
    <linearGradient id="rayB-c2" x1="0" y1="0" x2="1" y2="0">
      <stop offset="0%" stop-color="#7AAEFF" stop-opacity="0.85"/>
      <stop offset="100%" stop-color="#7AAEFF" stop-opacity="0"/>
    </linearGradient>
  </defs>

  <rect width="800" height="400" fill="url(#bg-c2)"/>

  <!-- 背景グリッド -->
  <g stroke="#2A3656" stroke-width="1" opacity="0.30">
    <line x1="0" y1="80" x2="800" y2="80"/>
    <line x1="0" y1="160" x2="800" y2="160"/>
    <line x1="0" y1="240" x2="800" y2="240"/>
    <line x1="0" y1="320" x2="800" y2="320"/>
  </g>

  <circle cx="500" cy="200" r="240" fill="url(#glow-c2)"/>

  <!-- 入射光（バイアス・歪んだ視点） -->
  <g stroke="#FFFFFF" stroke-width="2.5" opacity="0.85">
    <line x1="60" y1="200" x2="280" y2="200"/>
  </g>
  <g fill="#FFFFFF" opacity="0.55">
    <circle cx="80" cy="200" r="2.5"/>
    <circle cx="140" cy="200" r="2"/>
    <circle cx="200" cy="200" r="2"/>
  </g>

  <!-- プリズム（思考のフィルタ／バイアスを分解） -->
  <g transform="translate(340,140)">
    <polygon points="0,120 60,0 120,120" fill="url(#prism-c2)" stroke="#FFFFFF" stroke-width="1.5" opacity="0.95"/>
    <!-- ハイライト -->
    <polygon points="60,0 120,120 100,120 60,30" fill="#FFFFFF" opacity="0.18"/>
    <polygon points="60,0 0,120 20,120 60,30" fill="#FFFFFF" opacity="0.08"/>
  </g>

  <!-- 出射光（分解された＝客観的な視点） -->
  <g stroke-width="3" stroke-linecap="round">
    <line x1="460" y1="200" x2="740" y2="120" stroke="url(#rayR-c2)"/>
    <line x1="460" y1="200" x2="760" y2="170" stroke="url(#rayY-c2)"/>
    <line x1="460" y1="200" x2="760" y2="220" stroke="url(#rayG-c2)"/>
    <line x1="460" y1="200" x2="740" y2="270" stroke="url(#rayB-c2)"/>
  </g>

  <!-- 出射点に小さな円（焦点） -->
  <circle cx="460" cy="200" r="5" fill="#FFFFFF"/>
  <circle cx="460" cy="200" r="9" fill="none" stroke="#FFFFFF" stroke-width="1" opacity="0.4"/>

  <!-- 左上：歪んだ目／疑問符（バイアス） -->
  <g transform="translate(120,100)" opacity="0.7">
    <ellipse cx="0" cy="0" rx="28" ry="14" fill="none" stroke="#6C8EF5" stroke-width="2"/>
    <circle cx="0" cy="0" r="7" fill="#7AAEFF"/>
    <circle cx="2" cy="-2" r="2" fill="#FFFFFF"/>
  </g>

  <!-- 右下：チェックマーク（客観性の獲得） -->
  <g transform="translate(680,330)">
    <circle cx="0" cy="0" r="22" fill="#34D399" opacity="0.92"/>
    <polyline points="-8,0 -2,7 9,-6" stroke="#FFFFFF" stroke-width="3.5" fill="none" stroke-linecap="round" stroke-linejoin="round"/>
  </g>

  <!-- 細かい星 -->
  <g fill="#FFD566" opacity="0.85">
    <circle cx="80" cy="50" r="1.8"/>
    <circle cx="240" cy="60" r="1.5"/>
    <circle cx="560" cy="60" r="1.8"/>
    <circle cx="700" cy="50" r="1.5"/>
    <circle cx="140" cy="340" r="1.5"/>
    <circle cx="300" cy="350" r="1.5"/>
  </g>
</svg>
