<svg xmlns="http://www.w3.org/2000/svg" viewBox="0 0 800 400" preserveAspectRatio="xMidYMid slice">
  <defs>
    <linearGradient id="bg-n" x1="0" y1="0" x2="1" y2="1">
      <stop offset="0%" stop-color="#1F2942"/>
      <stop offset="100%" stop-color="#101729"/>
    </linearGradient>
    <radialGradient id="lampGlow-n" cx="0.5" cy="0.5" r="0.5">
      <stop offset="0%" stop-color="#FFD566" stop-opacity="0.40"/>
      <stop offset="100%" stop-color="#FFD566" stop-opacity="0"/>
    </radialGradient>
    <linearGradient id="paper-n" x1="0" y1="0" x2="0" y2="1">
      <stop offset="0%" stop-color="#F4ECC4"/>
      <stop offset="100%" stop-color="#D8C898"/>
    </linearGradient>
    <linearGradient id="frame-n" x1="0" y1="0" x2="0" y2="1">
      <stop offset="0%" stop-color="#7A5A1F"/>
      <stop offset="100%" stop-color="#3F2E0F"/>
    </linearGradient>
  </defs>

  <rect width="800" height="400" fill="url(#bg-n)"/>

  <!-- ランプの光 -->
  <circle cx="500" cy="200" r="240" fill="url(#lampGlow-n)"/>

  <!-- 机面（俯瞰風 — 手前を暗く） -->
  <rect x="0" y="290" width="800" height="110" fill="#0E1424"/>
  <line x1="0" y1="290" x2="800" y2="290" stroke="#2A3656" stroke-width="1" opacity="0.5"/>

  <!-- 帳簿（中央、開いた状態） -->
  <g transform="translate(400,200)">
    <!-- 影 -->
    <ellipse cx="0" cy="74" rx="232" ry="12" fill="#0B1428" opacity="0.7"/>
    <!-- 中央の綴じ -->
    <line x1="0" y1="-58" x2="0" y2="60" stroke="#7A5A1F" stroke-width="2" opacity="0.6"/>

    <!-- 左ページ -->
    <g transform="translate(-202,-60)">
      <rect x="0" y="0" width="200" height="120" rx="2" fill="url(#paper-n)"/>
      <!-- 縦罫 -->
      <line x1="40" y1="6" x2="40" y2="114" stroke="#7A5A1F" stroke-width="0.8" opacity="0.5"/>
      <line x1="155" y1="6" x2="155" y2="114" stroke="#7A5A1F" stroke-width="0.8" opacity="0.5"/>
      <!-- 横罫 -->
      <g stroke="#7A5A1F" stroke-width="0.5" opacity="0.4">
        <line x1="6" y1="20" x2="194" y2="20"/>
        <line x1="6" y1="36" x2="194" y2="36"/>
        <line x1="6" y1="52" x2="194" y2="52"/>
        <line x1="6" y1="68" x2="194" y2="68"/>
        <line x1="6" y1="84" x2="194" y2="84"/>
        <line x1="6" y1="100" x2="194" y2="100"/>
      </g>
      <!-- 数字（手書き風、ゆるく） -->
      <g font-family="'Courier New', ui-monospace, monospace" font-size="10" fill="#3F2E0F">
        <text x="48" y="32">売上</text>
        <text x="160" y="32" text-anchor="end">1,240</text>
        <text x="48" y="48">原価</text>
        <text x="160" y="48" text-anchor="end">680</text>
        <text x="48" y="64">粗利</text>
        <text x="160" y="64" text-anchor="end">560</text>
        <text x="48" y="80">経費</text>
        <text x="160" y="80" text-anchor="end">320</text>
      </g>
      <!-- 合計線 -->
      <line x1="48" y1="86" x2="170" y2="86" stroke="#7A2E2E" stroke-width="1.2"/>
      <text x="48" y="100" font-family="'Courier New', ui-monospace, monospace" font-size="11" font-weight="700" fill="#7A2E2E">利益</text>
      <text x="170" y="100" text-anchor="end" font-family="'Courier New', ui-monospace, monospace" font-size="11" font-weight="700" fill="#7A2E2E">240</text>
    </g>

    <!-- 右ページ -->
    <g transform="translate(2,-60)">
      <rect x="0" y="0" width="200" height="120" rx="2" fill="url(#paper-n)" opacity="0.95"/>
      <!-- グラフ -->
      <g transform="translate(20,16)">
        <line x1="0" y1="0" x2="0" y2="84" stroke="#7A5A1F" stroke-width="1" opacity="0.65"/>
        <line x1="0" y1="84" x2="160" y2="84" stroke="#7A5A1F" stroke-width="1" opacity="0.65"/>
        <!-- バー -->
        <rect x="14" y="50" width="22" height="34" fill="#3B5BBF" opacity="0.85"/>
        <rect x="46" y="34" width="22" height="50" fill="#3B5BBF" opacity="0.92"/>
        <rect x="78" y="44" width="22" height="40" fill="#3B5BBF" opacity="0.88"/>
        <rect x="110" y="20" width="22" height="64" fill="#C49A3C"/>
        <!-- 折れ線 -->
        <polyline points="25,50 57,34 89,44 121,20" stroke="#3F2E0F" stroke-width="1.4" fill="none" stroke-linecap="round" stroke-linejoin="round" opacity="0.85"/>
        <g fill="#3F2E0F">
          <circle cx="25" cy="50" r="2"/>
          <circle cx="57" cy="34" r="2"/>
          <circle cx="89" cy="44" r="2"/>
          <circle cx="121" cy="20" r="2.5"/>
        </g>
      </g>
      <!-- 注釈 -->
      <g font-family="'Courier New', ui-monospace, monospace" font-size="8" fill="#3F2E0F" opacity="0.85">
        <text x="180" y="22" text-anchor="end">↑ 27%</text>
      </g>
    </g>
  </g>

  <!-- 万年筆 -->
  <g transform="translate(620,300) rotate(-22)">
    <line x1="0" y1="0" x2="60" y2="0" stroke="#1A1F2E" stroke-width="6" stroke-linecap="round"/>
    <line x1="60" y1="0" x2="80" y2="0" stroke="#C49A3C" stroke-width="6" stroke-linecap="round"/>
    <polygon points="80,0 90,-2 90,2" fill="#1A1F2E"/>
  </g>

  <!-- ランプ（右奥、控えめ） -->
  <g transform="translate(640,168)">
    <!-- 笠 -->
    <path d="M -28 0 L 28 0 L 20 -26 L -20 -26 Z" fill="#1A2540" stroke="#FFD566" stroke-width="1.4"/>
    <ellipse cx="0" cy="-2" rx="26" ry="5" fill="#FFD566" opacity="0.85"/>
    <line x1="0" y1="0" x2="0" y2="62" stroke="#1A2540" stroke-width="2.5"/>
    <ellipse cx="0" cy="68" rx="18" ry="4" fill="#1A2540"/>
  </g>

  <!-- 控えめな星（窓越し風） -->
  <g fill="#7AAEFF" opacity="0.5">
    <circle cx="60" cy="60" r="1.4"/>
    <circle cx="140" cy="40" r="1.2"/>
    <circle cx="240" cy="50" r="1.4"/>
    <circle cx="720" cy="80" r="1.2"/>
  </g>
</svg>
