<svg xmlns="http://www.w3.org/2000/svg" viewBox="0 0 800 400" preserveAspectRatio="xMidYMid slice">
  <defs>
    <linearGradient id="bg-sy1" x1="0" y1="0" x2="1" y2="1">
      <stop offset="0%" stop-color="#1F2942"/>
      <stop offset="100%" stop-color="#101729"/>
    </linearGradient>
    <radialGradient id="glow-sy1" cx="0.5" cy="0.45" r="0.5">
      <stop offset="0%" stop-color="#7AAEFF" stop-opacity="0.30"/>
      <stop offset="100%" stop-color="#7AAEFF" stop-opacity="0"/>
    </radialGradient>
    <linearGradient id="ice-sy1" x1="0" y1="0" x2="0" y2="1">
      <stop offset="0%" stop-color="#F4ECC4"/>
      <stop offset="100%" stop-color="#C9B57A"/>
    </linearGradient>
    <linearGradient id="water-sy1" x1="0" y1="0" x2="0" y2="1">
      <stop offset="0%" stop-color="#3B5BBF" stop-opacity="0.7"/>
      <stop offset="100%" stop-color="#1B2954" stop-opacity="0.95"/>
    </linearGradient>
  </defs>

  <rect width="800" height="400" fill="url(#bg-sy1)"/>
  <circle cx="400" cy="180" r="260" fill="url(#glow-sy1)"/>

  <!-- 水面 -->
  <rect x="0" y="190" width="800" height="210" fill="url(#water-sy1)"/>
  <line x1="0" y1="190" x2="800" y2="190" stroke="#7AAEFF" stroke-width="1.4" opacity="0.7"/>

  <!-- 氷山 -->
  <g transform="translate(400,190)">
    <!-- 水面下 -->
    <polygon points="-150,0 150,0 110,170 -100,170" fill="#3B5BBF" opacity="0.55"/>
    <polygon points="-130,0 130,0 90,150 -90,150" fill="#3B5BBF" opacity="0.7"/>
    <polygon points="-150,0 -90,0 -70,170 -100,170" fill="#1B2954" opacity="0.5"/>
    <!-- 表面 -->
    <polygon points="-60,0 60,0 36,-70 -38,-70" fill="url(#ice-sy1)"/>
    <polygon points="-60,0 -16,0 -28,-54 -38,-70" fill="#9B8A4F" opacity="0.7"/>
    <line x1="-28" y1="-54" x2="22" y2="-32" stroke="#F4ECC4" stroke-width="1" opacity="0.6"/>
  </g>

  <!-- 氷山の各層ラベル -->
  <g font-family="'SF Pro Display','Helvetica Neue',sans-serif" font-weight="700">
    <g transform="translate(620,140)">
      <text x="0" y="0" font-size="12" fill="#FFD566">事象</text>
      <line x1="-110" y1="-4" x2="-30" y2="-4" stroke="#FFD566" stroke-width="1" stroke-dasharray="3 3" opacity="0.6"/>
    </g>
    <g transform="translate(620,250)">
      <text x="0" y="0" font-size="12" fill="#7AAEFF">パターン</text>
      <line x1="-130" y1="-4" x2="-50" y2="-4" stroke="#7AAEFF" stroke-width="1" stroke-dasharray="3 3" opacity="0.6"/>
    </g>
    <g transform="translate(620,330)">
      <text x="0" y="0" font-size="12" fill="#C49A3C">構造</text>
      <line x1="-110" y1="-4" x2="-30" y2="-4" stroke="#C49A3C" stroke-width="1" stroke-dasharray="3 3" opacity="0.6"/>
    </g>
  </g>

  <!-- フィードバックループ（左下、円環矢印） -->
  <g transform="translate(180,250)">
    <circle cx="0" cy="0" r="68" fill="none" stroke="#FFD566" stroke-width="3" stroke-dasharray="8 6" opacity="0.85"/>
    <!-- 矢印頭 -->
    <polygon points="60,-22 76,-12 60,-2" fill="#FFD566"/>
    <polygon points="-60,22 -76,12 -60,2" fill="#FFD566"/>
    <!-- 中心 -->
    <circle cx="0" cy="0" r="14" fill="#FFD566"/>
    <text x="0" y="6" text-anchor="middle" font-family="'SF Pro Display','Helvetica Neue',sans-serif" font-size="14" font-weight="700" fill="#1A2540">∞</text>
    <!-- ノード -->
    <g fill="#7AAEFF">
      <circle cx="0" cy="-68" r="8"/>
      <circle cx="68" cy="0" r="8"/>
      <circle cx="0" cy="68" r="8"/>
      <circle cx="-68" cy="0" r="8"/>
    </g>
  </g>

  <g fill="#7AAEFF" opacity="0.5">
    <circle cx="80" cy="50" r="1.4"/>
    <circle cx="220" cy="36" r="1.0"/>
    <circle cx="560" cy="50" r="1.2"/>
    <circle cx="700" cy="50" r="1.4"/>
    <circle cx="730" cy="80" r="1.0"/>
  </g>
</svg>
