<svg xmlns="http://www.w3.org/2000/svg" viewBox="0 0 800 400" preserveAspectRatio="xMidYMid slice">
  <defs>
    <linearGradient id="bg-an1" x1="0" y1="0" x2="1" y2="1">
      <stop offset="0%" stop-color="#1F2942"/>
      <stop offset="100%" stop-color="#101729"/>
    </linearGradient>
    <radialGradient id="glow-an1" cx="0.5" cy="0.45" r="0.5">
      <stop offset="0%" stop-color="#FFD566" stop-opacity="0.30"/>
      <stop offset="100%" stop-color="#FFD566" stop-opacity="0"/>
    </radialGradient>
    <linearGradient id="trunk-an1" x1="0" y1="0" x2="0" y2="1">
      <stop offset="0%" stop-color="#7A5A1F"/>
      <stop offset="100%" stop-color="#3F2E0F"/>
    </linearGradient>
    <linearGradient id="leaf-an1" x1="0" y1="0" x2="0" y2="1">
      <stop offset="0%" stop-color="#5FA37A"/>
      <stop offset="100%" stop-color="#2C6244"/>
    </linearGradient>
  </defs>

  <rect width="800" height="400" fill="url(#bg-an1)"/>
  <circle cx="400" cy="200" r="260" fill="url(#glow-an1)"/>

  <ellipse cx="200" cy="358" rx="120" ry="10" fill="#0B1424" opacity="0.6"/>
  <ellipse cx="600" cy="358" rx="120" ry="10" fill="#0B1424" opacity="0.6"/>

  <!-- 左：木 -->
  <g transform="translate(200,210)">
    <!-- 葉 -->
    <ellipse cx="0" cy="-60" rx="100" ry="80" fill="url(#leaf-an1)"/>
    <ellipse cx="-50" cy="-50" rx="40" ry="36" fill="#5FA37A" opacity="0.7"/>
    <ellipse cx="40" cy="-30" rx="34" ry="32" fill="#5FA37A" opacity="0.7"/>
    <!-- 幹 -->
    <rect x="-12" y="0" width="24" height="120" fill="url(#trunk-an1)"/>
    <!-- 枝（分岐構造を強調） -->
    <g fill="none" stroke="url(#trunk-an1)" stroke-width="6" stroke-linecap="round">
      <line x1="0" y1="20" x2="-50" y2="-10"/>
      <line x1="0" y1="40" x2="60" y2="20"/>
      <line x1="-50" y1="-10" x2="-78" y2="-30"/>
      <line x1="-50" y1="-10" x2="-40" y2="-44"/>
      <line x1="60" y1="20" x2="80" y2="-4"/>
      <line x1="60" y1="20" x2="78" y2="40"/>
    </g>
    <!-- 葉のドット -->
    <g fill="#FFD566" opacity="0.6">
      <circle cx="-30" cy="-90" r="3"/>
      <circle cx="40" cy="-100" r="3"/>
      <circle cx="0" cy="-130" r="3"/>
      <circle cx="-70" cy="-50" r="3"/>
    </g>
  </g>

  <!-- 右：回路基板 -->
  <g transform="translate(600,210)">
    <rect x="-110" y="-110" width="220" height="220" rx="6" fill="#1A2540" stroke="#3B5BBF" stroke-width="1.6"/>
    <!-- グリッド -->
    <g stroke="#3B5BBF" stroke-width="0.5" opacity="0.3">
      <line x1="-110" y1="-50" x2="110" y2="-50"/>
      <line x1="-110" y1="0" x2="110" y2="0"/>
      <line x1="-110" y1="50" x2="110" y2="50"/>
      <line x1="-50" y1="-110" x2="-50" y2="110"/>
      <line x1="0" y1="-110" x2="0" y2="110"/>
      <line x1="50" y1="-110" x2="50" y2="110"/>
    </g>
    <!-- 回路（同じ分岐構造） -->
    <g fill="none" stroke="#FFD566" stroke-width="2.4" stroke-linecap="round">
      <line x1="-90" y1="80" x2="-90" y2="40"/>
      <line x1="-90" y1="40" x2="0" y2="40"/>
      <line x1="0" y1="40" x2="0" y2="-30"/>
      <line x1="0" y1="-30" x2="-50" y2="-30"/>
      <line x1="0" y1="-30" x2="60" y2="-30"/>
      <line x1="-50" y1="-30" x2="-50" y2="-80"/>
      <line x1="-50" y1="-30" x2="-90" y2="-30"/>
      <line x1="60" y1="-30" x2="60" y2="-80"/>
      <line x1="60" y1="-30" x2="90" y2="0"/>
    </g>
    <!-- 抵抗とチップ -->
    <g fill="#7A2E2E">
      <rect x="-60" y="-86" width="20" height="10" rx="2"/>
      <rect x="50" y="-86" width="20" height="10" rx="2"/>
      <rect x="-100" y="-36" width="20" height="10" rx="2"/>
    </g>
    <g fill="#3F8C5F">
      <circle cx="0" cy="40" r="6"/>
      <circle cx="-90" cy="80" r="6"/>
      <circle cx="90" cy="0" r="6"/>
    </g>
  </g>

  <!-- 構造的類似性を示す3本の点線 -->
  <g stroke="#FFD566" stroke-width="1.4" stroke-dasharray="5 4" fill="none" opacity="0.7">
    <line x1="280" y1="120" x2="490" y2="120"/>
    <line x1="280" y1="200" x2="490" y2="200"/>
    <line x1="280" y1="280" x2="490" y2="280"/>
  </g>

  <!-- 中央のラベル -->
  <g transform="translate(400,200)">
    <rect x="-44" y="-16" width="88" height="32" rx="16" fill="#1A2540" stroke="#FFD566" stroke-width="1.4"/>
    <text x="0" y="6" text-anchor="middle" font-family="'SF Pro Display','Helvetica Neue',sans-serif" font-size="11" font-weight="700" fill="#FFD566">≈ 構造</text>
  </g>

  <g fill="#7AAEFF" opacity="0.5">
    <circle cx="80" cy="50" r="1.4"/>
    <circle cx="220" cy="36" r="1.0"/>
    <circle cx="720" cy="60" r="1.4"/>
  </g>
</svg>
