<svg xmlns="http://www.w3.org/2000/svg" viewBox="0 0 800 400" preserveAspectRatio="xMidYMid slice">
  <defs>
    <linearGradient id="bg-s2" x1="0" y1="0" x2="1" y2="1">
      <stop offset="0%" stop-color="#1F2942"/>
      <stop offset="100%" stop-color="#0B1428"/>
    </linearGradient>
    <linearGradient id="ocean-s2" x1="0" y1="0" x2="0" y2="1">
      <stop offset="0%" stop-color="#3B5BBF" stop-opacity="0.7"/>
      <stop offset="100%" stop-color="#101729" stop-opacity="0.95"/>
    </linearGradient>
    <linearGradient id="wave-s2" x1="0" y1="0" x2="1" y2="0">
      <stop offset="0%" stop-color="#7AAEFF" stop-opacity="0.55"/>
      <stop offset="50%" stop-color="#A8C7FF" stop-opacity="0.85"/>
      <stop offset="100%" stop-color="#7AAEFF" stop-opacity="0.55"/>
    </linearGradient>
    <radialGradient id="glow-s2" cx="0.7" cy="0.4" r="0.55">
      <stop offset="0%" stop-color="#7AAEFF" stop-opacity="0.30"/>
      <stop offset="100%" stop-color="#7AAEFF" stop-opacity="0"/>
    </radialGradient>
    <linearGradient id="hub-s2" x1="0" y1="0" x2="0" y2="1">
      <stop offset="0%" stop-color="#FFD566"/>
      <stop offset="100%" stop-color="#C49A3C"/>
    </linearGradient>
  </defs>

  <rect width="800" height="400" fill="url(#bg-s2)"/>

  <!-- 上空のグロー -->
  <circle cx="540" cy="120" r="240" fill="url(#glow-s2)"/>

  <!-- 星空 -->
  <g fill="#FFFFFF" opacity="0.7">
    <circle cx="80" cy="60" r="1.2"/>
    <circle cx="160" cy="40" r="1.5"/>
    <circle cx="280" cy="70" r="1.2"/>
    <circle cx="380" cy="50" r="1.5"/>
    <circle cx="480" cy="80" r="1.2"/>
    <circle cx="600" cy="40" r="1.5"/>
    <circle cx="680" cy="70" r="1.2"/>
    <circle cx="740" cy="50" r="1.5"/>
  </g>

  <!-- 海のベース -->
  <rect x="0" y="200" width="800" height="200" fill="url(#ocean-s2)"/>

  <!-- 大きな波（ブルーオーシャン） -->
  <g fill="url(#wave-s2)" opacity="0.85">
    <path d="M 0 230 Q 100 200 200 230 T 400 230 T 600 230 T 800 230 L 800 260 Q 700 240 600 260 T 400 260 T 200 260 T 0 260 Z"/>
  </g>
  <g fill="url(#wave-s2)" opacity="0.55">
    <path d="M 0 270 Q 120 245 240 270 T 480 270 T 720 270 T 800 270 L 800 300 Q 680 280 560 300 T 320 300 T 80 300 T 0 300 Z"/>
  </g>
  <g fill="url(#wave-s2)" opacity="0.35">
    <path d="M 0 310 Q 100 290 200 310 T 400 310 T 600 310 T 800 310 L 800 340 Q 700 320 600 340 T 400 340 T 200 340 T 0 340 Z"/>
  </g>

  <!-- 中央：プラットフォーム（ハブ＆ノード） -->
  <g transform="translate(420,160)">
    <!-- 接続線 -->
    <g stroke="#7AAEFF" stroke-width="1.6" opacity="0.6" fill="none">
      <line x1="0" y1="0" x2="-120" y2="-50"/>
      <line x1="0" y1="0" x2="120" y2="-50"/>
      <line x1="0" y1="0" x2="-130" y2="20"/>
      <line x1="0" y1="0" x2="130" y2="20"/>
      <line x1="0" y1="0" x2="-80" y2="80"/>
      <line x1="0" y1="0" x2="80" y2="80"/>
      <line x1="0" y1="0" x2="0" y2="-90"/>
    </g>

    <!-- ノード（資源・能力） -->
    <circle cx="-120" cy="-50" r="14" fill="#3B5BBF" stroke="#7AAEFF" stroke-width="1.5"/>
    <circle cx="120" cy="-50" r="14" fill="#3B5BBF" stroke="#7AAEFF" stroke-width="1.5"/>
    <circle cx="-130" cy="20" r="14" fill="#3B5BBF" stroke="#7AAEFF" stroke-width="1.5"/>
    <circle cx="130" cy="20" r="14" fill="#3B5BBF" stroke="#7AAEFF" stroke-width="1.5"/>
    <circle cx="-80" cy="80" r="12" fill="#6C8EF5"/>
    <circle cx="80" cy="80" r="12" fill="#6C8EF5"/>
    <circle cx="0" cy="-90" r="12" fill="#6C8EF5"/>

    <!-- ハブ（中心の戦略の要） -->
    <circle cx="0" cy="0" r="32" fill="url(#hub-s2)"/>
    <circle cx="0" cy="0" r="32" fill="none" stroke="#FFFFFF" stroke-width="2" opacity="0.7"/>
    <!-- ダイヤモンド（コアコンピタンス） -->
    <polygon points="0,-12 12,0 0,12 -12,0" fill="#1F2942"/>
  </g>

  <!-- 左下：船（市場開拓・進化） -->
  <g transform="translate(140,250)">
    <!-- 船体 -->
    <path d="M -50 0 L 50 0 L 40 24 L -40 24 Z" fill="#1A2540" stroke="#7AAEFF" stroke-width="1.5"/>
    <!-- 帆 -->
    <polygon points="0,-50 0,-2 24,-2" fill="#E7ECF7" opacity="0.92"/>
    <polygon points="0,-40 0,-2 -22,-2" fill="#A8C7FF" opacity="0.8"/>
    <!-- マスト -->
    <line x1="0" y1="-52" x2="0" y2="2" stroke="#1A2540" stroke-width="2"/>
  </g>

  <!-- 帆の風（しなやかな進化） -->
  <g stroke="#7AAEFF" stroke-width="1.4" fill="none" opacity="0.55" stroke-linecap="round">
    <path d="M 60 200 Q 80 195 100 200"/>
    <path d="M 50 215 Q 70 210 90 215"/>
  </g>

  <!-- 右下：右肩上がりの折れ線（成果） -->
  <g transform="translate(620,310)" stroke="#FFD566" stroke-width="2.5" fill="none" stroke-linecap="round" stroke-linejoin="round" opacity="0.92">
    <polyline points="0,40 30,30 60,32 90,18 120,22 150,0"/>
  </g>
  <g transform="translate(620,310)" fill="#FFD566">
    <circle cx="0" cy="40" r="3"/>
    <circle cx="30" cy="30" r="3"/>
    <circle cx="60" cy="32" r="3"/>
    <circle cx="90" cy="18" r="3"/>
    <circle cx="120" cy="22" r="3"/>
    <circle cx="150" cy="0" r="4" stroke="#FFFFFF" stroke-width="1.5"/>
  </g>
</svg>
