<svg xmlns="http://www.w3.org/2000/svg" viewBox="0 0 800 400" preserveAspectRatio="xMidYMid slice">
  <defs>
    <linearGradient id="bg-l2" x1="0" y1="0" x2="1" y2="1">
      <stop offset="0%" stop-color="#1F2942"/>
      <stop offset="100%" stop-color="#101729"/>
    </linearGradient>
    <radialGradient id="spot-l2" cx="0.5" cy="0.4" r="0.4">
      <stop offset="0%" stop-color="#FFD566" stop-opacity="0.32"/>
      <stop offset="100%" stop-color="#FFD566" stop-opacity="0"/>
    </radialGradient>
    <linearGradient id="figure-l2" x1="0" y1="0" x2="0" y2="1">
      <stop offset="0%" stop-color="#3B5BBF"/>
      <stop offset="100%" stop-color="#1B2954"/>
    </linearGradient>
  </defs>

  <rect width="800" height="400" fill="url(#bg-l2)"/>

  <!-- 細かいグリッド（舞台の床） -->
  <g stroke="#2A3656" stroke-width="1" opacity="0.25">
    <line x1="0" y1="80" x2="800" y2="80"/>
    <line x1="0" y1="160" x2="800" y2="160"/>
    <line x1="0" y1="240" x2="800" y2="240"/>
  </g>

  <!-- 舞台奥のスポットライト -->
  <circle cx="430" cy="130" r="200" fill="url(#spot-l2)"/>

  <!-- 背景のスクリーン（淡い） -->
  <g opacity="0.5">
    <rect x="280" y="60" width="320" height="180" rx="3" fill="none" stroke="#6C8EF5" stroke-width="1.2"/>
    <!-- スクリーンに描かれた一行（要点） -->
    <line x1="320" y1="120" x2="560" y2="120" stroke="#6C8EF5" stroke-width="2" opacity="0.6"/>
    <line x1="320" y1="150" x2="500" y2="150" stroke="#6C8EF5" stroke-width="2" opacity="0.4"/>
    <line x1="320" y1="180" x2="540" y2="180" stroke="#6C8EF5" stroke-width="2" opacity="0.4"/>
  </g>

  <!-- 演者シルエット（中央・腕を上げて指し示す） -->
  <g transform="translate(430,260)">
    <!-- 体 -->
    <path d="M -28 80 Q -32 30 -16 -8 Q -8 -16 0 -16 Q 8 -16 16 -8 Q 32 30 28 80 Z" fill="url(#figure-l2)"/>
    <!-- 顔 -->
    <circle cx="0" cy="-26" r="13" fill="#E7ECF7"/>
    <!-- 髪 -->
    <path d="M -13 -32 Q 0 -42 13 -32 L 13 -26 L -13 -26 Z" fill="#1A2540"/>
    <!-- 上げた腕（右） -->
    <path d="M 14 -8 Q 32 -28 38 -52" fill="none" stroke="url(#figure-l2)" stroke-width="11" stroke-linecap="round"/>
    <!-- 下ろした腕（左） -->
    <path d="M -14 -8 Q -22 18 -22 38" fill="none" stroke="url(#figure-l2)" stroke-width="11" stroke-linecap="round"/>
    <!-- 床の影 -->
    <ellipse cx="0" cy="84" rx="36" ry="5" fill="#0B1424" opacity="0.7"/>
  </g>

  <!-- 観客のシルエット（前景・3〜4人） -->
  <g fill="#0B1424" opacity="0.92">
    <ellipse cx="120" cy="370" rx="36" ry="14"/>
    <circle cx="120" cy="338" r="14"/>

    <ellipse cx="220" cy="380" rx="36" ry="14"/>
    <circle cx="220" cy="346" r="13"/>

    <ellipse cx="630" cy="380" rx="36" ry="14"/>
    <circle cx="630" cy="346" r="13"/>

    <ellipse cx="720" cy="370" rx="36" ry="14"/>
    <circle cx="720" cy="338" r="14"/>
  </g>

  <!-- スポット先の小さなアクセント（金の星） -->
  <g transform="translate(458,108)" fill="#FFD566">
    <polygon points="0,-7 2,-2 7,-2 3,1 5,6 0,3 -5,6 -3,1 -7,-2 -2,-2"/>
  </g>

  <!-- 細かい星（空気感） -->
  <g fill="#7AAEFF" opacity="0.55">
    <circle cx="80" cy="60" r="1.4"/>
    <circle cx="200" cy="40" r="1.2"/>
    <circle cx="660" cy="50" r="1.4"/>
    <circle cx="740" cy="80" r="1.2"/>
  </g>
</svg>
