<svg xmlns="http://www.w3.org/2000/svg" viewBox="0 0 800 400" preserveAspectRatio="xMidYMid slice">
  <defs>
    <linearGradient id="bg-cl3" x1="0" y1="0" x2="1" y2="1">
      <stop offset="0%" stop-color="#1F2942"/>
      <stop offset="100%" stop-color="#101729"/>
    </linearGradient>
    <linearGradient id="step-cl3" x1="0" y1="1" x2="0" y2="0">
      <stop offset="0%" stop-color="#3B5BBF"/>
      <stop offset="100%" stop-color="#7AAEFF"/>
    </linearGradient>
    <linearGradient id="step2-cl3" x1="0" y1="1" x2="0" y2="0">
      <stop offset="0%" stop-color="#4A6BD6"/>
      <stop offset="100%" stop-color="#A8C7FF"/>
    </linearGradient>
    <linearGradient id="book-cl3" x1="0" y1="0" x2="0" y2="1">
      <stop offset="0%" stop-color="#FFD566"/>
      <stop offset="100%" stop-color="#C49A3C"/>
    </linearGradient>
    <linearGradient id="book2-cl3" x1="0" y1="0" x2="0" y2="1">
      <stop offset="0%" stop-color="#F87171"/>
      <stop offset="100%" stop-color="#B23B3B"/>
    </linearGradient>
    <linearGradient id="book3-cl3" x1="0" y1="0" x2="0" y2="1">
      <stop offset="0%" stop-color="#34D399"/>
      <stop offset="100%" stop-color="#1B7A4F"/>
    </linearGradient>
    <radialGradient id="glow-cl3" cx="0.7" cy="0.4" r="0.55">
      <stop offset="0%" stop-color="#FFD566" stop-opacity="0.22"/>
      <stop offset="100%" stop-color="#FFD566" stop-opacity="0"/>
    </radialGradient>
  </defs>

  <rect width="800" height="400" fill="url(#bg-cl3)"/>

  <g stroke="#2A3656" stroke-width="1" opacity="0.30">
    <line x1="0" y1="100" x2="800" y2="100"/>
    <line x1="0" y1="200" x2="800" y2="200"/>
    <line x1="0" y1="300" x2="800" y2="300"/>
  </g>

  <circle cx="600" cy="150" r="240" fill="url(#glow-cl3)"/>

  <!-- 階段（短期間で立ち上がる） -->
  <g>
    <rect x="80" y="320" width="120" height="40" rx="3" fill="url(#step-cl3)" opacity="0.85"/>
    <rect x="180" y="270" width="120" height="90" rx="3" fill="url(#step-cl3)" opacity="0.92"/>
    <rect x="280" y="220" width="120" height="140" rx="3" fill="url(#step2-cl3)"/>
    <rect x="380" y="170" width="120" height="190" rx="3" fill="url(#step2-cl3)"/>
    <rect x="480" y="120" width="120" height="240" rx="3" fill="url(#step2-cl3)"/>
  </g>

  <!-- 階段の上の小さな人物（専門家として立つ） -->
  <g transform="translate(540,80)">
    <circle cx="0" cy="0" r="11" fill="#E7ECF7"/>
    <path d="M -16 12 Q -22 32 -16 50 L 16 50 Q 22 32 16 12 Q 8 8 0 8 Q -8 8 -16 12 Z" fill="#7AAEFF"/>
    <line x1="-12" y1="22" x2="-22" y2="42" stroke="#7AAEFF" stroke-width="6" stroke-linecap="round"/>
    <line x1="12" y1="22" x2="22" y2="42" stroke="#7AAEFF" stroke-width="6" stroke-linecap="round"/>
  </g>

  <!-- 階段上の星（達成） -->
  <g transform="translate(540,46)" fill="#FFD566">
    <polygon points="0,-12 3.5,-3.5 12,-3.5 5,2 8,11 0,5.5 -8,11 -5,2 -12,-3.5 -3.5,-3.5"/>
  </g>

  <!-- 上昇矢印（成長の方向） -->
  <g stroke="#FFD566" stroke-width="3" fill="none" stroke-linecap="round" stroke-linejoin="round" opacity="0.95">
    <polyline points="100,300 200,250 300,200 400,150 500,100"/>
    <polyline points="478,100 500,100 500,122"/>
  </g>

  <!-- 左：本（書物・知識のソース） -->
  <g transform="translate(40,180)">
    <!-- 本1 -->
    <rect x="0" y="0" width="60" height="80" rx="2" fill="url(#book-cl3)"/>
    <rect x="0" y="0" width="8" height="80" fill="#1A2540" opacity="0.5"/>
    <line x1="14" y1="20" x2="50" y2="20" stroke="#1A2540" stroke-width="1.5" opacity="0.6"/>
    <line x1="14" y1="32" x2="44" y2="32" stroke="#1A2540" stroke-width="1.5" opacity="0.6"/>
    <!-- 本2 -->
    <rect x="-8" y="-30" width="60" height="80" rx="2" fill="url(#book2-cl3)" transform="rotate(-8)"/>
    <!-- 本3 -->
    <rect x="6" y="-58" width="60" height="80" rx="2" fill="url(#book3-cl3)" transform="rotate(-14)"/>
  </g>

  <!-- 流れ：本→人物 -->
  <g stroke="#7AAEFF" stroke-width="1.5" fill="none" stroke-dasharray="3 4" opacity="0.55">
    <path d="M 100 180 Q 280 120 530 80"/>
  </g>
  <g fill="#7AAEFF" opacity="0.85">
    <circle cx="180" cy="148" r="2"/>
    <circle cx="280" cy="118" r="2"/>
    <circle cx="380" cy="98" r="2"/>
    <circle cx="480" cy="84" r="2"/>
  </g>

  <!-- 右下：データ（事例） -->
  <g transform="translate(640,250)" opacity="0.9">
    <rect x="0" y="0" width="120" height="90" rx="6" fill="#1A2540" stroke="#6C8EF5" stroke-width="1.5"/>
    <line x1="14" y1="20" x2="106" y2="20" stroke="#6C8EF5" stroke-width="1.2" opacity="0.65"/>
    <line x1="14" y1="34" x2="80" y2="34" stroke="#6C8EF5" stroke-width="1.2" opacity="0.65"/>
    <line x1="14" y1="48" x2="92" y2="48" stroke="#6C8EF5" stroke-width="1.2" opacity="0.65"/>
    <line x1="14" y1="62" x2="70" y2="62" stroke="#6C8EF5" stroke-width="1.2" opacity="0.65"/>
    <line x1="14" y1="76" x2="100" y2="76" stroke="#6C8EF5" stroke-width="1.2" opacity="0.65"/>
  </g>

  <!-- アクセント星 -->
  <g fill="#FFD566" opacity="0.85">
    <circle cx="120" cy="60" r="1.8"/>
    <circle cx="280" cy="50" r="1.5"/>
    <circle cx="660" cy="80" r="1.8"/>
    <circle cx="720" cy="50" r="1.5"/>
  </g>
</svg>
