<svg xmlns="http://www.w3.org/2000/svg" viewBox="0 0 800 400" preserveAspectRatio="xMidYMid slice">
  <defs>
    <linearGradient id="bg-cl3" x1="0" y1="0" x2="1" y2="1">
      <stop offset="0%" stop-color="#1F2942"/>
      <stop offset="100%" stop-color="#101729"/>
    </linearGradient>
    <radialGradient id="lampGlow-cl3" cx="0.5" cy="0.5" r="0.55">
      <stop offset="0%" stop-color="#FFD566" stop-opacity="0.55"/>
      <stop offset="60%" stop-color="#FFD566" stop-opacity="0.12"/>
      <stop offset="100%" stop-color="#FFD566" stop-opacity="0"/>
    </radialGradient>
    <linearGradient id="desk-cl3" x1="0" y1="0" x2="0" y2="1">
      <stop offset="0%" stop-color="#2A3656"/>
      <stop offset="100%" stop-color="#0B1424"/>
    </linearGradient>
    <linearGradient id="book-a-cl3" x1="0" y1="0" x2="0" y2="1">
      <stop offset="0%" stop-color="#C49A3C"/>
      <stop offset="100%" stop-color="#7A5A1F"/>
    </linearGradient>
    <linearGradient id="book-b-cl3" x1="0" y1="0" x2="0" y2="1">
      <stop offset="0%" stop-color="#3B5BBF"/>
      <stop offset="100%" stop-color="#1B2954"/>
    </linearGradient>
    <linearGradient id="book-c-cl3" x1="0" y1="0" x2="0" y2="1">
      <stop offset="0%" stop-color="#7A2E2E"/>
      <stop offset="100%" stop-color="#3F1313"/>
    </linearGradient>
  </defs>

  <rect width="800" height="400" fill="url(#bg-cl3)"/>

  <!-- 後ろの窓（夜・星空） -->
  <g opacity="0.45">
    <rect x="80" y="40" width="640" height="200" rx="3" fill="none" stroke="#6C8EF5" stroke-width="1.4"/>
    <line x1="400" y1="40" x2="400" y2="240" stroke="#6C8EF5" stroke-width="1" opacity="0.5"/>
    <line x1="80" y1="140" x2="720" y2="140" stroke="#6C8EF5" stroke-width="1" opacity="0.5"/>
  </g>
  <!-- 月（窓越し） -->
  <g transform="translate(620,90)" opacity="0.85">
    <circle cx="0" cy="0" r="32" fill="#E7ECF7"/>
    <circle cx="-10" cy="-6" r="28" fill="#1F2942"/>
  </g>
  <!-- 星 -->
  <g fill="#7AAEFF" opacity="0.7">
    <circle cx="160" cy="80" r="1.4"/>
    <circle cx="240" cy="120" r="1.2"/>
    <circle cx="320" cy="80" r="1.4"/>
    <circle cx="500" cy="100" r="1.4"/>
    <circle cx="540" cy="180" r="1.2"/>
    <circle cx="180" cy="200" r="1.2"/>
  </g>

  <!-- ランプの光 -->
  <circle cx="240" cy="200" r="200" fill="url(#lampGlow-cl3)"/>

  <!-- 机の天板 -->
  <rect x="0" y="290" width="800" height="14" fill="url(#desk-cl3)"/>
  <rect x="0" y="304" width="800" height="96" fill="#0B1424"/>

  <!-- ランプ -->
  <g transform="translate(240,200)">
    <!-- 笠 -->
    <path d="M -36 0 L 36 0 L 26 -34 L -26 -34 Z" fill="#1A2540" stroke="#FFD566" stroke-width="1.5"/>
    <!-- 笠の内側のグロー（明るい底） -->
    <ellipse cx="0" cy="-2" rx="34" ry="6" fill="#FFD566" opacity="0.85"/>
    <!-- 棒 -->
    <line x1="0" y1="0" x2="0" y2="78" stroke="#1A2540" stroke-width="3"/>
    <!-- 台座 -->
    <ellipse cx="0" cy="86" rx="22" ry="5" fill="#1A2540"/>
  </g>

  <!-- 開かれた本（ランプの下） -->
  <g transform="translate(380,300)">
    <!-- 紙の影 -->
    <path d="M -80 -2 Q -2 -22 80 -2 L 78 0 Q -2 -18 -78 0 Z" fill="#1A2540"/>
    <!-- 左ページ -->
    <path d="M -80 -4 Q -42 -18 -2 -16 L -2 -4 Q -42 -8 -76 0 Z" fill="#E7ECF7" opacity="0.95"/>
    <!-- 右ページ -->
    <path d="M 80 -4 Q 42 -18 2 -16 L 2 -4 Q 42 -8 76 0 Z" fill="#E7ECF7" opacity="0.92"/>
    <!-- 文字行 -->
    <g stroke="#3B4663" stroke-width="0.8" opacity="0.7">
      <line x1="-72" y1="-10" x2="-12" y2="-14"/>
      <line x1="-70" y1="-7" x2="-12" y2="-10"/>
      <line x1="12" y1="-14" x2="72" y2="-10"/>
      <line x1="12" y1="-10" x2="70" y2="-7"/>
    </g>
  </g>

  <!-- 積み上がった本（左奥・少し低く） -->
  <g transform="translate(120,260)">
    <rect x="0" y="20" width="120" height="20" rx="2" fill="url(#book-c-cl3)"/>
    <rect x="6" y="0" width="118" height="20" rx="2" fill="url(#book-a-cl3)"/>
    <rect x="-2" y="-20" width="120" height="20" rx="2" fill="url(#book-b-cl3)"/>
    <!-- 背の細い線 -->
    <g stroke="#FFD566" stroke-width="1" opacity="0.4">
      <line x1="14" y1="-4" x2="106" y2="-4"/>
    </g>
  </g>

  <!-- 右奥の本立て（数冊立てかけ） -->
  <g transform="translate(560,250)">
    <rect x="0" y="0" width="14" height="50" rx="2" fill="url(#book-b-cl3)"/>
    <rect x="16" y="-4" width="14" height="54" rx="2" fill="url(#book-a-cl3)"/>
    <rect x="32" y="-2" width="14" height="52" rx="2" fill="url(#book-c-cl3)"/>
    <rect x="48" y="2" width="14" height="48" rx="2" fill="url(#book-b-cl3)" opacity="0.85"/>
  </g>

  <!-- ペン（本の右側） -->
  <g transform="translate(458,294) rotate(-12)">
    <line x1="0" y1="0" x2="46" y2="0" stroke="#C49A3C" stroke-width="3" stroke-linecap="round"/>
    <line x1="0" y1="0" x2="10" y2="0" stroke="#1A2540" stroke-width="3" stroke-linecap="round"/>
    <polygon points="46,0 52,-2 52,2" fill="#1A2540"/>
  </g>
</svg>
