<svg xmlns="http://www.w3.org/2000/svg" viewBox="0 0 800 400" preserveAspectRatio="xMidYMid slice">
  <defs>
    <linearGradient id="bg-pc1" x1="0" y1="0" x2="1" y2="1">
      <stop offset="0%" stop-color="#1F2942"/>
      <stop offset="100%" stop-color="#101729"/>
    </linearGradient>
    <radialGradient id="glow-pc1" cx="0.55" cy="0.5" r="0.5">
      <stop offset="0%" stop-color="#FFD566" stop-opacity="0.34"/>
      <stop offset="100%" stop-color="#FFD566" stop-opacity="0"/>
    </radialGradient>
    <linearGradient id="paper-pc1" x1="0" y1="0" x2="0" y2="1">
      <stop offset="0%" stop-color="#F4ECC4"/>
      <stop offset="100%" stop-color="#D8C898"/>
    </linearGradient>
  </defs>

  <rect width="800" height="400" fill="url(#bg-pc1)"/>

  <circle cx="500" cy="200" r="260" fill="url(#glow-pc1)"/>

  <!-- 下書きの紙（散らばる、左奥） -->
  <g transform="translate(160,210) rotate(-12)" opacity="0.7">
    <rect x="-90" y="-60" width="180" height="120" rx="2" fill="url(#paper-pc1)" opacity="0.8"/>
    <g stroke="#3F2E0F" stroke-width="1" opacity="0.4">
      <line x1="-78" y1="-40" x2="78" y2="-40"/>
      <line x1="-78" y1="-20" x2="60" y2="-20"/>
      <line x1="-78" y1="0" x2="70" y2="0"/>
      <line x1="-78" y1="20" x2="50" y2="20"/>
    </g>
    <!-- 修正線 -->
    <line x1="-60" y1="-22" x2="20" y2="-18" stroke="#7A2E2E" stroke-width="2" opacity="0.7"/>
  </g>

  <g transform="translate(220,270) rotate(8)" opacity="0.85">
    <rect x="-90" y="-60" width="180" height="120" rx="2" fill="url(#paper-pc1)" opacity="0.9"/>
    <g stroke="#3F2E0F" stroke-width="1" opacity="0.45">
      <line x1="-78" y1="-40" x2="78" y2="-40"/>
      <line x1="-78" y1="-20" x2="65" y2="-20"/>
      <line x1="-78" y1="0" x2="70" y2="0"/>
      <line x1="-78" y1="20" x2="55" y2="20"/>
    </g>
    <!-- チェックと書き込み -->
    <polyline points="-50,4 -42,12 -28,-2" stroke="#3B5BBF" stroke-width="2" fill="none" stroke-linecap="round" stroke-linejoin="round"/>
  </g>

  <!-- 仕上げの一冊（中央、光沢） -->
  <g transform="translate(490,200)">
    <ellipse cx="0" cy="138" rx="140" ry="10" fill="#0B1424" opacity="0.65"/>
    <rect x="-110" y="-130" width="220" height="270" rx="4" fill="url(#paper-pc1)"/>
    <!-- ヘッダ -->
    <rect x="-110" y="-130" width="220" height="40" fill="#1A2540"/>
    <rect x="-110" y="-130" width="220" height="40" fill="url(#glow-pc1)" opacity="0.5"/>
    <line x1="-90" y1="-110" x2="60" y2="-110" stroke="#FFD566" stroke-width="2"/>
    <!-- 本文行 -->
    <g stroke="#3F2E0F" stroke-width="1.3" opacity="0.6">
      <line x1="-90" y1="-70" x2="80" y2="-70"/>
      <line x1="-90" y1="-50" x2="60" y2="-50"/>
      <line x1="-90" y1="-30" x2="80" y2="-30"/>
      <line x1="-90" y1="-10" x2="40" y2="-10"/>
    </g>
    <!-- 仮説→検証の矢印（中段） -->
    <g stroke="#3B5BBF" stroke-width="2" fill="none" stroke-linecap="round">
      <circle cx="-70" cy="30" r="6" fill="#3B5BBF" opacity="0.85"/>
      <circle cx="0" cy="30" r="6" fill="#C49A3C"/>
      <circle cx="70" cy="30" r="6" fill="#3B5BBF" opacity="0.85"/>
      <line x1="-60" y1="30" x2="-10" y2="30"/>
      <line x1="10" y1="30" x2="60" y2="30"/>
    </g>
    <g stroke="#3F2E0F" stroke-width="1.3" opacity="0.5">
      <line x1="-90" y1="60" x2="80" y2="60"/>
      <line x1="-90" y1="80" x2="50" y2="80"/>
      <line x1="-90" y1="100" x2="80" y2="100"/>
    </g>
  </g>

  <!-- 万年筆 -->
  <g transform="translate(630,300) rotate(-25)">
    <line x1="0" y1="0" x2="56" y2="0" stroke="#1A1F2E" stroke-width="6" stroke-linecap="round"/>
    <line x1="56" y1="0" x2="76" y2="0" stroke="#C49A3C" stroke-width="6" stroke-linecap="round"/>
    <polygon points="76,0 86,-2 86,2" fill="#1A1F2E"/>
  </g>

  <g fill="#7AAEFF" opacity="0.5">
    <circle cx="60" cy="50" r="1.4"/>
    <circle cx="160" cy="40" r="1.2"/>
    <circle cx="700" cy="60" r="1.4"/>
    <circle cx="730" cy="100" r="1.0"/>
  </g>
</svg>
