<svg xmlns="http://www.w3.org/2000/svg" viewBox="0 0 800 400" preserveAspectRatio="xMidYMid slice">
  <defs>
    <linearGradient id="bg-c1" x1="0" y1="0" x2="1" y2="1">
      <stop offset="0%" stop-color="#1F2942"/>
      <stop offset="100%" stop-color="#101729"/>
    </linearGradient>
    <radialGradient id="glow-c1" cx="0.5" cy="0.5" r="0.5">
      <stop offset="0%" stop-color="#7AAEFF" stop-opacity="0.34"/>
      <stop offset="100%" stop-color="#7AAEFF" stop-opacity="0"/>
    </radialGradient>
    <linearGradient id="screen-c1" x1="0" y1="0" x2="0" y2="1">
      <stop offset="0%" stop-color="#0E1E3C"/>
      <stop offset="100%" stop-color="#0A1428"/>
    </linearGradient>
  </defs>

  <rect width="800" height="400" fill="url(#bg-c1)"/>
  <circle cx="400" cy="200" r="260" fill="url(#glow-c1)"/>

  <!-- 机面 -->
  <rect x="0" y="320" width="800" height="80" fill="#0E1424"/>
  <line x1="0" y1="320" x2="800" y2="320" stroke="#2A3656" stroke-width="1" opacity="0.5"/>

  <!-- ダッシュボード（中央モニター） -->
  <g transform="translate(400,180)">
    <ellipse cx="0" cy="148" rx="220" ry="10" fill="#0B1424" opacity="0.65"/>
    <!-- 枠 -->
    <rect x="-200" y="-130" width="400" height="260" rx="6" fill="#1A2540" stroke="#3B5BBF" stroke-width="1.5"/>
    <rect x="-188" y="-118" width="376" height="236" rx="3" fill="url(#screen-c1)"/>
    <!-- スタンド -->
    <rect x="-30" y="118" width="60" height="14" fill="#1A2540"/>
    <rect x="-50" y="130" width="100" height="6" rx="2" fill="#1A2540"/>

    <!-- 大きな数字（KPI） -->
    <text x="-160" y="-60" font-family="'SF Pro Display','Helvetica Neue',sans-serif" font-size="38" font-weight="700" fill="#FFD566">¥1.24M</text>
    <text x="-160" y="-38" font-family="'SF Pro Display','Helvetica Neue',sans-serif" font-size="11" fill="#7AAEFF" opacity="0.85">月次売上</text>

    <text x="40" y="-60" font-family="'SF Pro Display','Helvetica Neue',sans-serif" font-size="22" font-weight="700" fill="#7AAEFF">+27%</text>
    <text x="40" y="-38" font-family="'SF Pro Display','Helvetica Neue',sans-serif" font-size="11" fill="#7AAEFF" opacity="0.7">前年比</text>

    <!-- 棒グラフ -->
    <g transform="translate(-160,40)">
      <line x1="0" y1="0" x2="0" y2="60" stroke="#3B5BBF" stroke-width="1" opacity="0.5"/>
      <line x1="0" y1="60" x2="320" y2="60" stroke="#3B5BBF" stroke-width="1" opacity="0.5"/>
      <rect x="20" y="34" width="22" height="26" fill="#3B5BBF" opacity="0.7"/>
      <rect x="60" y="20" width="22" height="40" fill="#3B5BBF" opacity="0.85"/>
      <rect x="100" y="28" width="22" height="32" fill="#3B5BBF" opacity="0.75"/>
      <rect x="140" y="14" width="22" height="46" fill="#3B5BBF" opacity="0.9"/>
      <rect x="180" y="8" width="22" height="52" fill="#FFD566"/>
      <!-- 折れ線 -->
      <polyline points="31,34 71,20 111,28 151,14 191,8" stroke="#FFD566" stroke-width="1.6" fill="none" stroke-linecap="round"/>
    </g>
  </g>

  <!-- 電卓（左下） -->
  <g transform="translate(120,310)">
    <rect x="-48" y="-30" width="96" height="60" rx="6" fill="#1A2540" stroke="#3B5BBF" stroke-width="1.2"/>
    <rect x="-40" y="-22" width="80" height="14" rx="2" fill="#0E1E3C"/>
    <text x="36" y="-11" text-anchor="end" font-family="'Courier New', monospace" font-size="11" fill="#FFD566">1240</text>
    <g fill="#3B5BBF" opacity="0.85">
      <rect x="-38" y="-2" width="14" height="10" rx="1"/>
      <rect x="-20" y="-2" width="14" height="10" rx="1"/>
      <rect x="-2" y="-2" width="14" height="10" rx="1"/>
      <rect x="16" y="-2" width="14" height="10" rx="1"/>
      <rect x="-38" y="12" width="14" height="10" rx="1"/>
      <rect x="-20" y="12" width="14" height="10" rx="1"/>
      <rect x="-2" y="12" width="14" height="10" rx="1"/>
      <rect x="16" y="12" width="14" height="10" rx="1"/>
    </g>
  </g>

  <!-- 円グラフ（右下） -->
  <g transform="translate(680,310)">
    <circle cx="0" cy="0" r="34" fill="#1A2540" stroke="#3B5BBF" stroke-width="1.2"/>
    <path d="M 0 0 L 0 -34 A 34 34 0 0 1 32.3 -10.5 Z" fill="#FFD566"/>
    <path d="M 0 0 L 32.3 -10.5 A 34 34 0 0 1 20 27.5 Z" fill="#3B5BBF"/>
    <path d="M 0 0 L 20 27.5 A 34 34 0 0 1 -34 0 Z" fill="#7AAEFF" opacity="0.7"/>
  </g>

  <g fill="#7AAEFF" opacity="0.5">
    <circle cx="60" cy="50" r="1.4"/>
    <circle cx="180" cy="36" r="1.2"/>
    <circle cx="720" cy="80" r="1.2"/>
  </g>
</svg>
