<svg xmlns="http://www.w3.org/2000/svg" viewBox="0 0 800 400" preserveAspectRatio="xMidYMid slice">
  <defs>
    <linearGradient id="bg-p1" x1="0" y1="0" x2="1" y2="1">
      <stop offset="0%" stop-color="#1F2942"/>
      <stop offset="100%" stop-color="#101729"/>
    </linearGradient>
    <radialGradient id="glow-p1" cx="0.55" cy="0.45" r="0.45">
      <stop offset="0%" stop-color="#FFD566" stop-opacity="0.32"/>
      <stop offset="100%" stop-color="#FFD566" stop-opacity="0"/>
    </radialGradient>
    <linearGradient id="paper-p1" x1="0" y1="0" x2="0" y2="1">
      <stop offset="0%" stop-color="#F4ECC4"/>
      <stop offset="100%" stop-color="#D8C898"/>
    </linearGradient>
  </defs>

  <rect width="800" height="400" fill="url(#bg-p1)"/>

  <g stroke="#2A3656" stroke-width="1" opacity="0.25">
    <line x1="0" y1="100" x2="800" y2="100"/>
    <line x1="0" y1="200" x2="800" y2="200"/>
    <line x1="0" y1="300" x2="800" y2="300"/>
  </g>

  <circle cx="440" cy="180" r="240" fill="url(#glow-p1)"/>

  <!-- 提案書（中央） -->
  <g transform="translate(280,90)">
    <rect x="0" y="0" width="220" height="260" rx="4" fill="url(#paper-p1)"/>
    <rect x="0" y="0" width="220" height="36" fill="#3B5BBF" opacity="0.9"/>
    <line x1="20" y1="58" x2="200" y2="58" stroke="#3F2E0F" stroke-width="2.4" opacity="0.85"/>
    <g stroke="#3F2E0F" stroke-width="1.2" opacity="0.55">
      <line x1="20" y1="80" x2="195" y2="80"/>
      <line x1="20" y1="100" x2="180" y2="100"/>
      <line x1="20" y1="120" x2="200" y2="120"/>
      <line x1="20" y1="140" x2="170" y2="140"/>
      <line x1="20" y1="170" x2="195" y2="170"/>
      <line x1="20" y1="190" x2="185" y2="190"/>
      <line x1="20" y1="210" x2="200" y2="210"/>
      <line x1="20" y1="230" x2="160" y2="230"/>
    </g>
    <!-- アクセントの強調行 -->
    <rect x="20" y="138" width="150" height="6" fill="#C49A3C" opacity="0.85"/>
  </g>

  <!-- 矢印（提案→決断） -->
  <g stroke="#FFD566" stroke-width="3.5" fill="none" stroke-linecap="round" stroke-linejoin="round">
    <path d="M 520 220 Q 580 200 620 220"/>
    <polyline points="612,210 622,222 612,232"/>
  </g>

  <!-- 決断（チェックマーク+円） -->
  <g transform="translate(680,220)">
    <circle cx="0" cy="0" r="42" fill="#1A2540" stroke="#FFD566" stroke-width="2.5"/>
    <polyline points="-18,2 -4,16 20,-12" stroke="#FFD566" stroke-width="5" fill="none" stroke-linecap="round" stroke-linejoin="round"/>
  </g>

  <!-- 床の影 -->
  <ellipse cx="390" cy="358" rx="160" ry="10" fill="#0B1424" opacity="0.6"/>
  <ellipse cx="680" cy="280" rx="50" ry="6" fill="#0B1424" opacity="0.5"/>

  <!-- 細かい星 -->
  <g fill="#7AAEFF" opacity="0.5">
    <circle cx="80" cy="60" r="1.4"/>
    <circle cx="180" cy="40" r="1.2"/>
    <circle cx="260" cy="60" r="1.0"/>
    <circle cx="660" cy="60" r="1.4"/>
    <circle cx="740" cy="90" r="1.2"/>
    <circle cx="100" cy="320" r="1.2"/>
  </g>
</svg>
