<svg xmlns="http://www.w3.org/2000/svg" viewBox="0 0 800 400" preserveAspectRatio="xMidYMid slice">
  <defs>
    <linearGradient id="bg-cr1" x1="0" y1="0" x2="1" y2="1">
      <stop offset="0%" stop-color="#1F2942"/>
      <stop offset="100%" stop-color="#101729"/>
    </linearGradient>
    <radialGradient id="glow-cr1" cx="0.5" cy="0.4" r="0.5">
      <stop offset="0%" stop-color="#FFD566" stop-opacity="0.30"/>
      <stop offset="100%" stop-color="#FFD566" stop-opacity="0"/>
    </radialGradient>
    <linearGradient id="paper-cr1" x1="0" y1="0" x2="0" y2="1">
      <stop offset="0%" stop-color="#F4ECC4"/>
      <stop offset="100%" stop-color="#D8C898"/>
    </linearGradient>
  </defs>

  <rect width="800" height="400" fill="url(#bg-cr1)"/>
  <circle cx="400" cy="200" r="260" fill="url(#glow-cr1)"/>

  <ellipse cx="400" cy="350" rx="220" ry="12" fill="#0B1424" opacity="0.6"/>

  <!-- 中央の文書 -->
  <g transform="translate(400,210)">
    <rect x="-150" y="-110" width="300" height="220" rx="4" fill="url(#paper-cr1)"/>
    <rect x="-150" y="-110" width="300" height="34" fill="#7A2E2E"/>
    <line x1="-130" y1="-90" x2="80" y2="-90" stroke="#F4ECC4" stroke-width="2" opacity="0.85"/>

    <!-- 本文行 -->
    <g stroke="#3F2E0F" stroke-width="1.2" opacity="0.55">
      <line x1="-130" y1="-50" x2="130" y2="-50"/>
      <line x1="-130" y1="-30" x2="100" y2="-30"/>
      <line x1="-130" y1="-10" x2="120" y2="-10"/>
      <line x1="-130" y1="10" x2="80" y2="10"/>
      <line x1="-130" y1="30" x2="120" y2="30"/>
      <line x1="-130" y1="50" x2="90" y2="50"/>
      <line x1="-130" y1="70" x2="110" y2="70"/>
      <line x1="-130" y1="90" x2="60" y2="90"/>
    </g>

    <!-- 怪しい主張に取り消し線 -->
    <line x1="-100" y1="10" x2="60" y2="10" stroke="#7A2E2E" stroke-width="2.5" opacity="0.85"/>
    <line x1="-100" y1="50" x2="50" y2="50" stroke="#7A2E2E" stroke-width="2.5" opacity="0.85"/>

    <!-- チェックマーク（正しい論証） -->
    <g stroke="#3F8C5F" stroke-width="3" fill="none" stroke-linecap="round" stroke-linejoin="round">
      <polyline points="-128,-30 -118,-22 -100,-38"/>
      <polyline points="-128,30 -118,38 -100,22"/>
      <polyline points="-128,90 -118,98 -100,82"/>
    </g>
  </g>

  <!-- 虫眼鏡（右上から覗き込む） -->
  <g transform="translate(560,150) rotate(20)">
    <circle cx="0" cy="0" r="64" fill="#7AAEFF" fill-opacity="0.18" stroke="#FFD566" stroke-width="6"/>
    <circle cx="0" cy="0" r="64" fill="none" stroke="#1A2540" stroke-width="2" opacity="0.8"/>
    <line x1="46" y1="46" x2="92" y2="92" stroke="#FFD566" stroke-width="14" stroke-linecap="round"/>
    <line x1="46" y1="46" x2="92" y2="92" stroke="#1A2540" stroke-width="3" stroke-linecap="round"/>
    <!-- 虫眼鏡内のクエスチョン → チェック -->
    <text x="-22" y="14" font-family="'SF Pro Display','Helvetica Neue',sans-serif" font-size="42" font-weight="700" fill="#7A2E2E">?</text>
    <polyline points="6,4 14,14 28,-6" stroke="#3F8C5F" stroke-width="4" fill="none" stroke-linecap="round" stroke-linejoin="round"/>
  </g>

  <!-- 浮かぶ クエスチョンマーク -->
  <g font-family="'SF Pro Display','Helvetica Neue',sans-serif" font-weight="700" fill="#FFD566" opacity="0.85">
    <text x="120" y="130" font-size="38">?</text>
    <text x="160" y="80" font-size="22" opacity="0.6">?</text>
    <text x="700" y="320" font-size="32" opacity="0.7">?</text>
  </g>

  <g fill="#7AAEFF" opacity="0.5">
    <circle cx="80" cy="50" r="1.4"/>
    <circle cx="220" cy="36" r="1.0"/>
    <circle cx="700" cy="60" r="1.4"/>
  </g>
</svg>
