<svg xmlns="http://www.w3.org/2000/svg" viewBox="0 0 800 400" preserveAspectRatio="xMidYMid slice">
  <defs>
    <linearGradient id="bg-h1" x1="0" y1="0" x2="1" y2="1">
      <stop offset="0%" stop-color="#1F2942"/>
      <stop offset="100%" stop-color="#101729"/>
    </linearGradient>
    <radialGradient id="glow-h1" cx="0.5" cy="0.4" r="0.5">
      <stop offset="0%" stop-color="#FFD566" stop-opacity="0.34"/>
      <stop offset="100%" stop-color="#FFD566" stop-opacity="0"/>
    </radialGradient>
    <linearGradient id="bulb-h1" x1="0" y1="0" x2="0" y2="1">
      <stop offset="0%" stop-color="#FFE489"/>
      <stop offset="100%" stop-color="#C49A3C"/>
    </linearGradient>
    <linearGradient id="paper-h1" x1="0" y1="0" x2="0" y2="1">
      <stop offset="0%" stop-color="#F4ECC4"/>
      <stop offset="100%" stop-color="#D8C898"/>
    </linearGradient>
  </defs>

  <rect width="800" height="400" fill="url(#bg-h1)"/>
  <circle cx="400" cy="170" r="260" fill="url(#glow-h1)"/>

  <!-- 机面 -->
  <rect x="0" y="320" width="800" height="80" fill="#0E1424"/>
  <line x1="0" y1="320" x2="800" y2="320" stroke="#2A3656" stroke-width="1" opacity="0.5"/>

  <!-- 電球（中央上、仮説のひらめき） -->
  <g transform="translate(400,140)">
    <circle cx="0" cy="0" r="84" fill="url(#glow-h1)" opacity="0.7"/>
    <path d="M -34 -12 Q -34 -56 0 -56 Q 34 -56 34 -12 Q 34 14 18 26 L 18 42 L -18 42 L -18 26 Q -34 14 -34 -12 Z" fill="url(#bulb-h1)"/>
    <line x1="-18" y1="46" x2="18" y2="46" stroke="#1A2540" stroke-width="3" stroke-linecap="round"/>
    <line x1="-14" y1="54" x2="14" y2="54" stroke="#1A2540" stroke-width="3" stroke-linecap="round"/>
    <!-- フィラメント -->
    <path d="M -10 12 Q 0 -8 10 12" fill="none" stroke="#7A5A1F" stroke-width="1.4" opacity="0.7"/>
    <!-- 光線 -->
    <g stroke="#FFD566" stroke-width="2" stroke-linecap="round" opacity="0.7">
      <line x1="0" y1="-72" x2="0" y2="-86"/>
      <line x1="-50" y1="-50" x2="-58" y2="-58"/>
      <line x1="50" y1="-50" x2="58" y2="-58"/>
      <line x1="-66" y1="-12" x2="-78" y2="-12"/>
      <line x1="66" y1="-12" x2="78" y2="-12"/>
    </g>
  </g>

  <!-- ノート（仮説 → 検証） -->
  <g transform="translate(190,290)">
    <rect x="-90" y="-60" width="180" height="100" rx="2" fill="url(#paper-h1)"/>
    <text x="-72" y="-40" font-family="'SF Pro Display','Helvetica Neue',sans-serif" font-size="11" font-weight="700" fill="#3F2E0F">仮説</text>
    <line x1="-50" y1="-44" x2="-50" y2="-32" stroke="#3F2E0F" stroke-width="0.5" opacity="0.6"/>
    <g stroke="#3F2E0F" stroke-width="1" opacity="0.55">
      <line x1="-72" y1="-22" x2="74" y2="-22"/>
      <line x1="-72" y1="-8" x2="60" y2="-8"/>
      <line x1="-72" y1="6" x2="74" y2="6"/>
      <line x1="-72" y1="20" x2="50" y2="20"/>
    </g>
  </g>

  <!-- 検証（右、データ点グラフ） -->
  <g transform="translate(610,290)">
    <rect x="-90" y="-60" width="180" height="100" rx="2" fill="url(#paper-h1)"/>
    <text x="-72" y="-40" font-family="'SF Pro Display','Helvetica Neue',sans-serif" font-size="11" font-weight="700" fill="#3F2E0F">検証</text>
    <!-- 散布図 -->
    <g transform="translate(-72,-14)">
      <line x1="0" y1="0" x2="0" y2="44" stroke="#3F2E0F" stroke-width="0.8" opacity="0.6"/>
      <line x1="0" y1="44" x2="138" y2="44" stroke="#3F2E0F" stroke-width="0.8" opacity="0.6"/>
      <g fill="#3B5BBF">
        <circle cx="14" cy="36" r="2.4"/>
        <circle cx="32" cy="30" r="2.4"/>
        <circle cx="48" cy="22" r="2.4"/>
        <circle cx="68" cy="26" r="2.4"/>
        <circle cx="84" cy="14" r="2.4"/>
        <circle cx="104" cy="18" r="2.4"/>
        <circle cx="122" cy="6" r="2.4"/>
      </g>
      <line x1="10" y1="38" x2="126" y2="6" stroke="#7A2E2E" stroke-width="1.4" opacity="0.85"/>
    </g>
  </g>

  <!-- つなぎの矢印（仮説→電球→検証） -->
  <g stroke="#FFD566" stroke-width="2" fill="none" stroke-linecap="round" stroke-dasharray="5 4" opacity="0.7">
    <path d="M 280 280 Q 340 220 380 200"/>
    <path d="M 420 200 Q 460 220 520 280"/>
  </g>
  <!-- 検証→仮説 (フィードバック) -->
  <g stroke="#7AAEFF" stroke-width="2" fill="none" stroke-linecap="round" opacity="0.55">
    <path d="M 600 350 Q 400 380 200 350"/>
    <polyline points="208,344 198,352 210,358"/>
  </g>

  <g fill="#7AAEFF" opacity="0.5">
    <circle cx="60" cy="50" r="1.4"/>
    <circle cx="180" cy="36" r="1.0"/>
    <circle cx="700" cy="50" r="1.4"/>
    <circle cx="740" cy="100" r="1.0"/>
  </g>
</svg>
