<svg xmlns="http://www.w3.org/2000/svg" viewBox="0 0 800 400" preserveAspectRatio="xMidYMid slice">
  <defs>
    <linearGradient id="bg-l1" x1="0" y1="0" x2="1" y2="1">
      <stop offset="0%" stop-color="#1F2942"/>
      <stop offset="100%" stop-color="#101729"/>
    </linearGradient>
    <radialGradient id="glow-l1" cx="0.5" cy="0.4" r="0.5">
      <stop offset="0%" stop-color="#FFD566" stop-opacity="0.30"/>
      <stop offset="100%" stop-color="#FFD566" stop-opacity="0"/>
    </radialGradient>
    <linearGradient id="board-l1" x1="0" y1="0" x2="0" y2="1">
      <stop offset="0%" stop-color="#F4ECC4"/>
      <stop offset="100%" stop-color="#D8C898"/>
    </linearGradient>
  </defs>

  <rect width="800" height="400" fill="url(#bg-l1)"/>
  <circle cx="400" cy="180" r="260" fill="url(#glow-l1)"/>

  <!-- ホワイトボード -->
  <g transform="translate(400,200)">
    <ellipse cx="0" cy="158" rx="280" ry="10" fill="#0B1424" opacity="0.6"/>
    <rect x="-300" y="-150" width="600" height="300" rx="6" fill="url(#board-l1)" stroke="#3F2E0F" stroke-width="3"/>

    <!-- ロジックツリー（左半分） -->
    <g stroke="#3B5BBF" stroke-width="1.6" fill="none">
      <!-- 根ノード -->
      <rect x="-260" y="-30" width="80" height="36" rx="4" fill="#3B5BBF" opacity="0.92"/>
      <!-- 第1階層 -->
      <line x1="-180" y1="-12" x2="-150" y2="-90"/>
      <line x1="-180" y1="-12" x2="-150" y2="-12"/>
      <line x1="-180" y1="-12" x2="-150" y2="66"/>
      <rect x="-150" y="-104" width="70" height="28" rx="3" fill="#7AAEFF" opacity="0.85" stroke="none"/>
      <rect x="-150" y="-26" width="70" height="28" rx="3" fill="#7AAEFF" opacity="0.85" stroke="none"/>
      <rect x="-150" y="52" width="70" height="28" rx="3" fill="#7AAEFF" opacity="0.85" stroke="none"/>
      <!-- 第2階層 -->
      <line x1="-80" y1="-90" x2="-50" y2="-110"/>
      <line x1="-80" y1="-90" x2="-50" y2="-72"/>
      <line x1="-80" y1="-12" x2="-50" y2="-32"/>
      <line x1="-80" y1="-12" x2="-50" y2="8"/>
      <line x1="-80" y1="66" x2="-50" y2="50"/>
      <line x1="-80" y1="66" x2="-50" y2="86"/>
      <g fill="#C49A3C" stroke="none">
        <rect x="-50" y="-118" width="50" height="18" rx="3"/>
        <rect x="-50" y="-82" width="50" height="18" rx="3"/>
        <rect x="-50" y="-42" width="50" height="18" rx="3"/>
        <rect x="-50" y="-2" width="50" height="18" rx="3"/>
        <rect x="-50" y="40" width="50" height="18" rx="3"/>
        <rect x="-50" y="78" width="50" height="18" rx="3"/>
      </g>
    </g>

    <!-- MECE グリッド（右半分） -->
    <g transform="translate(150,-100)">
      <text x="0" y="-12" font-family="'SF Pro Display','Helvetica Neue',sans-serif" font-size="14" font-weight="700" fill="#3F2E0F">MECE</text>
      <g stroke="#3F2E0F" stroke-width="1.4" fill="none">
        <rect x="0" y="0" width="60" height="48" fill="#3B5BBF" opacity="0.85" stroke="none"/>
        <rect x="64" y="0" width="60" height="48" fill="#7A2E2E" opacity="0.85" stroke="none"/>
        <rect x="0" y="52" width="60" height="48" fill="#C49A3C" opacity="0.85" stroke="none"/>
        <rect x="64" y="52" width="60" height="48" fill="#3F8C5F" opacity="0.85" stroke="none"/>
      </g>
      <!-- 細い罫線 -->
      <line x1="-10" y1="116" x2="134" y2="116" stroke="#3F2E0F" stroke-width="1" opacity="0.5"/>
      <line x1="-10" y1="124" x2="100" y2="124" stroke="#3F2E0F" stroke-width="1" opacity="0.4"/>
    </g>

    <!-- マーカー -->
    <g transform="translate(190,110) rotate(28)">
      <rect x="0" y="-6" width="46" height="12" rx="2" fill="#3B5BBF"/>
      <rect x="46" y="-6" width="14" height="12" fill="#1A2540"/>
      <polygon points="60,-6 70,0 60,6" fill="#1A2540"/>
    </g>
  </g>

  <g fill="#7AAEFF" opacity="0.5">
    <circle cx="80" cy="50" r="1.4"/>
    <circle cx="200" cy="36" r="1.0"/>
    <circle cx="700" cy="50" r="1.4"/>
    <circle cx="730" cy="80" r="1.0"/>
  </g>
</svg>
