<svg xmlns="http://www.w3.org/2000/svg" viewBox="0 0 800 400" preserveAspectRatio="xMidYMid slice">
  <defs>
    <linearGradient id="bg-f1" x1="0" y1="0" x2="1" y2="1">
      <stop offset="0%" stop-color="#1F2942"/>
      <stop offset="100%" stop-color="#101729"/>
    </linearGradient>
    <radialGradient id="globe-f1" cx="0.4" cy="0.35" r="0.65">
      <stop offset="0%" stop-color="#7AAEFF"/>
      <stop offset="60%" stop-color="#3B5BBF"/>
      <stop offset="100%" stop-color="#1B2954"/>
    </radialGradient>
    <radialGradient id="glow-f1" cx="0.5" cy="0.5" r="0.5">
      <stop offset="0%" stop-color="#7AAEFF" stop-opacity="0.30"/>
      <stop offset="100%" stop-color="#7AAEFF" stop-opacity="0"/>
    </radialGradient>
  </defs>

  <rect width="800" height="400" fill="url(#bg-f1)"/>
  <circle cx="400" cy="200" r="280" fill="url(#glow-f1)"/>

  <!-- 地球（中央） -->
  <g transform="translate(400,210)">
    <!-- 影 -->
    <ellipse cx="0" cy="124" rx="124" ry="14" fill="#0B1424" opacity="0.7"/>
    <!-- 本体 -->
    <circle cx="0" cy="0" r="118" fill="url(#globe-f1)"/>
    <!-- 経緯線 -->
    <g fill="none" stroke="#7AAEFF" stroke-width="1" opacity="0.5">
      <ellipse cx="0" cy="0" rx="118" ry="40"/>
      <ellipse cx="0" cy="0" rx="118" ry="80"/>
      <ellipse cx="0" cy="0" rx="40" ry="118"/>
      <ellipse cx="0" cy="0" rx="80" ry="118"/>
      <line x1="-118" y1="0" x2="118" y2="0"/>
    </g>
    <!-- 大陸（簡略化） -->
    <g fill="#C49A3C" opacity="0.7">
      <path d="M -50 -40 Q -40 -50 -20 -45 Q -10 -38 -20 -25 Q -40 -22 -55 -30 Z"/>
      <path d="M 10 -10 Q 30 -20 50 -10 Q 60 5 50 18 Q 30 22 15 14 Z"/>
      <path d="M -30 30 Q -10 28 0 40 Q -8 56 -28 52 Q -42 44 -38 36 Z"/>
      <path d="M 60 -50 Q 78 -52 84 -42 Q 80 -34 66 -38 Z"/>
    </g>
    <!-- ハイライト -->
    <ellipse cx="-40" cy="-50" rx="40" ry="30" fill="#F4ECC4" opacity="0.18"/>
  </g>

  <!-- 浮かぶ概算式（吹き出し） -->
  <g font-family="'SF Pro Display','Helvetica Neue',sans-serif" font-weight="700">
    <!-- 左上：人口 -->
    <g transform="translate(140,90)">
      <rect x="-58" y="-22" width="116" height="44" rx="6" fill="#1A2540" stroke="#FFD566" stroke-width="1.4"/>
      <text x="0" y="-3" text-anchor="middle" font-size="11" fill="#7AAEFF" opacity="0.85">人口</text>
      <text x="0" y="14" text-anchor="middle" font-size="14" fill="#FFD566">1.25 億</text>
    </g>
    <!-- 右上：1人あたり -->
    <g transform="translate(660,90)">
      <rect x="-58" y="-22" width="116" height="44" rx="6" fill="#1A2540" stroke="#FFD566" stroke-width="1.4"/>
      <text x="0" y="-3" text-anchor="middle" font-size="11" fill="#7AAEFF" opacity="0.85">1人/年</text>
      <text x="0" y="14" text-anchor="middle" font-size="14" fill="#FFD566">¥ 50万</text>
    </g>
    <!-- 下：合計 -->
    <g transform="translate(400,360)">
      <rect x="-90" y="-22" width="180" height="44" rx="6" fill="#1A2540" stroke="#C49A3C" stroke-width="1.6"/>
      <text x="0" y="-3" text-anchor="middle" font-size="11" fill="#C49A3C" opacity="0.85">≒ 市場規模</text>
      <text x="0" y="14" text-anchor="middle" font-size="16" fill="#FFD566">¥ 62.5 兆</text>
    </g>
  </g>

  <!-- 接続線 -->
  <g stroke="#FFD566" stroke-width="1" stroke-dasharray="4 3" fill="none" opacity="0.6">
    <line x1="200" y1="100" x2="304" y2="172"/>
    <line x1="600" y1="100" x2="496" y2="172"/>
    <line x1="400" y1="328" x2="400" y2="338"/>
  </g>

  <g fill="#7AAEFF" opacity="0.55">
    <circle cx="60" cy="50" r="1.4"/>
    <circle cx="240" cy="40" r="1.0"/>
    <circle cx="560" cy="40" r="1.2"/>
    <circle cx="740" cy="60" r="1.4"/>
    <circle cx="120" cy="220" r="1.0"/>
    <circle cx="700" cy="220" r="1.2"/>
  </g>
</svg>
